<mxfile host="app.diagrams.net" modified="2021-09-22T15:38:29.319Z" agent="5.0 (X11)" etag="ijDaBPjc2TOi-fllu4mo" version="15.2.9" type="github">
  <diagram id="iJsx7foQYJBDxfvTk9jG" name="Page-1">
    <mxGraphModel dx="1355" dy="1962" grid="1" gridSize="10" guides="1" tooltips="1" connect="1" arrows="1" fold="1" page="1" pageScale="1" pageWidth="827" pageHeight="1169" math="0" shadow="0">
      <root>
        <mxCell id="0" />
        <mxCell id="1" parent="0" />
        <mxCell id="T4wCmDOwKbvbeEqY4K7c-1" value="" style="rounded=1;whiteSpace=wrap;html=1;strokeWidth=3;strokeColor=#007FFF;" parent="1" vertex="1">
          <mxGeometry x="540" y="-70" width="440" height="120" as="geometry" />
        </mxCell>
        <mxCell id="bGvqWACWf-lIKPqjdWD8-1" value="" style="shape=hexagon;perimeter=hexagonPerimeter2;whiteSpace=wrap;html=1;fixedSize=1;" parent="1" vertex="1">
          <mxGeometry x="131.12" y="750" width="376" height="290" as="geometry" />
        </mxCell>
        <mxCell id="bGvqWACWf-lIKPqjdWD8-31" value="" style="rounded=0;whiteSpace=wrap;html=1;" parent="1" vertex="1">
          <mxGeometry x="160" y="780" width="320" height="250" as="geometry" />
        </mxCell>
        <mxCell id="dZQNJgFwioYakfUk7VY2-46" value="" style="shape=hexagon;perimeter=hexagonPerimeter2;whiteSpace=wrap;html=1;fixedSize=1;" parent="1" vertex="1">
          <mxGeometry x="470" y="60" width="376" height="350" as="geometry" />
        </mxCell>
        <mxCell id="ivbXQMKR3xz6gGFe4MmB-6" value="" style="whiteSpace=wrap;html=1;aspect=fixed;" parent="1" vertex="1">
          <mxGeometry x="500" y="110" width="290" height="290" as="geometry" />
        </mxCell>
        <mxCell id="dZQNJgFwioYakfUk7VY2-1" value="" style="shape=image;imageAspect=0;aspect=fixed;verticalLabelPosition=bottom;verticalAlign=top;image=data:image/png,iVBORw0KGgoAAAANSUhEUgAAAIkAAACKCAMAAACpbplVAAADAFBMVEUAAAAAADMAAGYAAJkAAMwAAP8AMwAAMzMAM2YAM5kAM8wAM/8AZgAAZjMAZmYAZpkAZswAZv8AmQAAmTMAmWYAmZkAmcwAmf8AzAAAzDMAzGYAzJkAzMwAzP8A/wAA/zMA/2YA/5kA/8wA//8zAAAzADMzAGYzAJkzAMwzAP8zMwAzMzMzM2YzM5kzM8wzM/8zZgAzZjMzZmYzZpkzZswzZv8zmQAzmTMzmWYzmZkzmcwzmf8zzAAzzDMzzGYzzJkzzMwzzP8z/wAz/zMz/2Yz/5kz/8wz//9mAABmADNmAGZmAJlmAMxmAP9mMwBmMzNmM2ZmM5lmM8xmM/9mZgBmZjNmZmZmZplmZsxmZv9mmQBmmTNmmWZmmZlmmcxmmf9mzABmzDNmzGZmzJlmzMxmzP9m/wBm/zNm/2Zm/5lm/8xm//+ZAACZADOZAGaZAJmZAMyZAP+ZMwCZMzOZM2aZM5mZM8yZM/+ZZgCZZjOZZmaZZpmZZsyZZv+ZmQCZmTOZmWaZmZmZmcyZmf+ZzACZzDOZzGaZzJmZzMyZzP+Z/wCZ/zOZ/2aZ/5mZ/8yZ///MAADMADPMAGbMAJnMAMzMAP/MMwDMMzPMM2bMM5nMM8zMM//MZgDMZjPMZmbMZpnMZszMZv/MmQDMmTPMmWbMmZnMmczMmf/MzADMzDPMzGbMzJnMzMzMzP/M/wDM/zPM/2bM/5nM/8zM////AAD/ADP/AGb/AJn/AMz/AP//MwD/MzP/M2b/M5n/M8z/M///ZgD/ZjP/Zmb/Zpn/Zsz/Zv//mQD/mTP/mWb/mZn/mcz/mf//zAD/zDP/zGb/zJn/zMz/zP///wD//zP//2b//5n//8z///8AAABvb2+ioqJxcXHi4uJqamoYGBgiIiJmZmZSUlJbW1t6enp8fHx1dXVgYGBsbGxAQEA4ODgtLS09PT0NDQ0JCQlUVFReXl5QUFAlJSWpqakTExMoKCg+Pj4GBgYuLi4pKSlGRkYrKytKSkpHR0fv7+7e3t/7/PxVgQisAAAA2XRSTlP///////////////////////////////////////////////////////////////////////////////////////////////////////////////////////////////////////////////////////////////////////////////////////////////////////////////////////////////////////////////////////////////////////////////////////////////8A9EGGvAAAAAlwSFlzAAAOxAAADsQBlSsOGwAABzZJREFUeJztnFmS5CgMQPM+vg/zNYfRnEd/c5f2dcZIYNBmA86unI5IKiKr0mZ5LBaSkOu1/1/S69MAZ/qS2PQlselLYtOXxKYLEjzS+xrCu+oiEgQqevx6CwbAbW0BSeN/x7g0govafJK+wHOUsdpcEpmdvgCsQeTREEVDFJdEtprLrq6XY33otqdIKHNeZVC/4rZIkmrTuTacJcFKslcS/HttdgASNpJSb4ByQXLUkQoJ/LNGkvAg4ZLHJyySMAN/4vKChW46FsYELtfY3QJElBd1bRMke0riqxwPFpdH9UByGEzNOUNfBLaL2m5IUJCopvJCpufgGHpoD1jXD5TDkNdKWNslCSTYuB1wxMFemsfcJBPpfojpxXTU12oLhyRYsWlLiSchpRR1YjS12jClWC75MrZvHbagGxm0S+Gmf4xK8OWOxGSGZLLQYJWtviSgSxZHLX/ZzUsSR7CrNee32AjFPTsG6KNYEi9fe5ggU3gVdZn7PN5koBljl8SfRyBhjfcYDYaVCbdRF0WT+Lx5pHAbxDhhDvrNv+l1V5NEz+zxKL6ihyhiuZAATn8ViR6StvhWFBTUQ3LKSQdRkXSqL9APmjszJEW/ITkMpcb+zgVJGxLgXeUs4ZS9TVBVrrw5VTGIqqF7EqQttZEES/kqlTnIUo82I2jm1wSJTg9I3Ft/IgmvkrZOn5HQVHe1TZBwUXwXSdauoNeGb0lay0DPTXtiVnRq6EqXRVu+O/3Skq21p8ykcM6v5EyKcjn9MtI+am8LUIp+TY8nlDktm19Kr3VpH07CsQP6u3TColkbHRvS5m/FfitWK/BVoERVOyK/jAkUO/7UsQ/woz2ffkgrCJ6Rwpd1IO+2qYSg0x50zL1odTZvRDvBMKiztfw2t98b197R5qe8kDsc0qBWLw1KpN279o5Uxx19B4seL407vmiqk+Uj1T7wsx02Dlaq2Nwhu+JMEA4Unuo+hsZT6PFLWFoBfG4E7n1tW8Trk/SNp5e2neZB2t/4ila8b432Qxjbj4MJ1aoLsrkrVijCGK6xwSSLQyR3PRI9CCsKQde0Lj1sFzsNPxoUW9jvmCfZHJt6HcQp6++yDokn7ddJvPF0bdSehC2kTk2jPZX+grznxs6aKxLnmjsoL5EhqxZNw4NT9chbq1SwBxJ1zDXYbrWCAxWxU6rJo8eGYOJfMwcJrJD7i927KmaHVbP2Pfeq6IU8MzOzwy7brvfFkUsDlbQR42lKoSdnMiHp8pKkTva+oTJiHBJ//Fef475fwC5t0rhp65a3B0lWn2O5g/mEEUnk3VojiV1U6yRrAn/CvfUxEnPjUyR2OX6MxCzZT5HYh+dL8oBkCeQRyXulfbhf/ThJ6E8eIIn3Ynv2eJFY34NTxzHHlvWE1SHhy1k/qWqJrBicA9kwZX0vIatYrrLHJP5eTMpitrrBKZy6EIU5koR6+z9JpEfjpQsjg0gNNC8TmHqUSwxBbcw5aNeXJQkf6mJRG3W5pRT5/O73nZ+wd9zLn7ABicRc8exiY6K92S7ex3S2/bf7CujigB7LKCLjU/+J0+yAtzwnPurtvur7p728e1KQjOs+t3UjeaPszk569Tl1KSzmGwnr8pcUyOIkB9JmFt6Q356RN2jeQiuo+Ydsp3pmIAQyyABD6GrzOxeSXPtj6bSg2Mv1t/QRK0u+OVLLvI+dIOzG2xg4ZJVjOAwFUcsk+w8HTxA8v71+rGscjLhYY2F0YXPBd4TOnmXsNtZFtoOSxpuIQZL4fCc3PxAII49VHpzvxGdeCd1DrwiGskb73wBJfA6YJuNP6ATjwTlguMVsafDkrWcJg1buZWwHq8T4yuYjhgRLjbqdiKS5QItAdxiHUykD575wxtbcawUtQw5X7EnW4wp4b+AAyJVImCrGn5PsJeRfVPhHxp9Q69iirZ6TlGOBKRIOUdqFBfaABEqIMRZNYoyk2El8lkDaRw2TfxC7hXwy0dU2GglTAqVr2EJ3x0+sTmKTGac6Um6XYGc8NZd7z3A8ByrmSHCVgOCqS0Ils/aKrS0iuXAqd4oXqBEqxy5IoR41AAW2VxQ9M6Tbx7GgFGbBJHpwq0lNo1MeEFYNHsSCXsTHdgNz577g+NgUxce6V39XzPBecB/EDHtx1LIPHGLiK1Qm/ORJHLVVoB0bjvV6GVvOoR+mlfXYcp35HfH2vYY9+V7GRsdjQF0PSg6nwwZstU29g8BPSHsv42HQB2mdi+9lKMHz8DU8ZfJNvvumlIPzYz7l426ntlES5725Ve9jagrO+a7WDAl9nC7kCxPqLmXzvARkrryFd74P2L22tvgIJWwkp7d4hqTu6pXkV1p0ySb8q5LUGZ6SJ50TjT9/eV67kYTwrx6FqTGR6se5m60mU9sEyXvf6t2HaovedD778VDCqvYvNIrw7e+a3gEyVN3NG/FvAhmp7Y/4LwE/nL4kNn1JbPqS2PQlsek/QDYmir/YHm8AAAAASUVORK5CYII=;base64,iVBORw0KGgoAAAANSUhEUgAAAWMAAACxCAMAAAAmnSxDAAADAFBMVEUAAAAAADMAAGYAAJkAAMwAAP8AMwAAMzMAM2YAM5kAM8wAM/8AZgAAZjMAZmYAZpkAZswAZv8AmQAAmTMAmWYAmZkAmcwAmf8AzAAAzDMAzGYAzJkAzMwAzP8A/wAA/zMA/2YA/5kA/8wA//8zAAAzADMzAGYzAJkzAMwzAP8zMwAzMzMzM2YzM5kzM8wzM/8zZgAzZjMzZmYzZpkzZswzZv8zmQAzmTMzmWYzmZkzmcwzmf8zzAAzzDMzzGYzzJkzzMwzzP8z/wAz/zMz/2Yz/5kz/8wz//9mAABmADNmAGZmAJlmAMxmAP9mMwBmMzNmM2ZmM5lmM8xmM/9mZgBmZjNmZmZmZplmZsxmZv9mmQBmmTNmmWZmmZlmmcxmmf9mzABmzDNmzGZmzJlmzMxmzP9m/wBm/zNm/2Zm/5lm/8xm//+ZAACZADOZAGaZAJmZAMyZAP+ZMwCZMzOZM2aZM5mZM8yZM/+ZZgCZZjOZZmaZZpmZZsyZZv+ZmQCZmTOZmWaZmZmZmcyZmf+ZzACZzDOZzGaZzJmZzMyZzP+Z/wCZ/zOZ/2aZ/5mZ/8yZ///MAADMADPMAGbMAJnMAMzMAP/MMwDMMzPMM2bMM5nMM8zMM//MZgDMZjPMZmbMZpnMZszMZv/MmQDMmTPMmWbMmZnMmczMmf/MzADMzDPMzGbMzJnMzMzMzP/M/wDM/zPM/2bM/5nM/8zM////AAD/ADP/AGb/AJn/AMz/AP//MwD/MzP/M2b/M5n/M8z/M///ZgD/ZjP/Zmb/Zpn/Zsz/Zv//mQD/mTP/mWb/mZn/mcz/mf//zAD/zDP/zGb/zJn/zMz/zP///wD//zP//2b//5n//8z///8AAAA9PT03NzcxMTEcHBwtLS0FBQUiIiIQEBC6urohISFubm4KCgoWFhYqKioXFxcPDw85OTkGBgZFRUU6OjooKCh+fn42NjZOTk5ZWVkbGxsUFBQZGRkrKysgICBxcXE+Pj4pKSkAAAAAAAAAAAAAAAAAAAAAAADm/mQtAAABAHRSTlP///////////////////////////////////////////////////////////////////////////////////////////////////////////////////////////////////////////////////////////////////////////////////////////////////////////////////////////////////////////////////////////////////////////////////////////////8A////////////////////////////////////////////AAAAAAAAZ3rRbgAAAAlwSFlzAAAOxAAADsQBlSsOGwAACBdJREFUeJztndFhhCAMhtmHfdiHfbLPrVOBIKigKAlazf/QXkEDfCJiDlL1E3FL3V2BD0gY80sY80sY80sY80sY80sY80sY80sY80sY80sY80sY80sY80sY80sY80sY80sY80sY80sY80sY80sY80sY80sY80sY80sY80sY80sY80sY8+tGxtaad8lCuaG3MQZjKlX6r4Jak+5ibN9G2AuMLaTexNiW6vIGlcaLexiDuaXYAYLC/XkP41cOFEGwvUNVyiMQNLLb7cZAU5VmKBTFZQ3ftg0ZT4P1dFyvptlYU9sK1zrJ2aCpShNhkoaDTVOK7T2qsF1UN29pPNpo74nXhqZFLc/Vpuo2aba07WUq5BMV1Ghrp7NTTjga7inCB0NseIVx++DVoAZjO4dQTjiOLzfpFBKNVRiTzqR2B9tfpRonTj6hw15KOr/BSzqE8bG1OmPad5PDW4p2mj6OcYO1HcakE2dhfC7nioTxuZwrEsbncq5IGJ/LuSJhfC7nil7FePGViw6/lkUtHC/GbN02ixzU9QodWcPq6EtepJp4GWvnF5mweu9I8JKs/A7B8zKhV1op9MIsig2nLQ7oeEMwc4VstLaAnKpjQJeqc6nQYJqLsTc+9QsFKr62rxhDSFRKz61ZMv7FA6D+VtosM1fIxOJWjOfSQEGhOpcLZWdsMteIWTr/kLFrXGzt4ogIYsq06HAlYGx+yY+Q+zAjY1eafgpj1wHr78mRsc0ZL5zYJjG20cjiiIxx/c2/WZGxu6KlCpmZMcBTGIP2HUGdYFweK/KHT3GscJeDkvFcXHGssG64KA1dlwu9zhhPPNOPa4zdIy2v07KCrmcpHCFJGM/FVRi7B3ahOpcL5WNc0JIxFGZ3iyMWOaY0/YtVcaOWjdehoiNrUDqg3HI/SM4XYrfQcELXWGHavjDhfQfBUavJC0rwDhKK+8H+Jc2tcT3zCkXtGutgjEfYlkULBIxjcQP68RkNYdz7vWFQa1XT5OPY2gsYh1HLNL2WUY0VJk0+jq29gHEYteDgmddorXmQHPHMOyPxu60kjOkkjEsSxt0SxudyrkgYn8u5ImF8LueKhPG5nCt6LWNZ77ZO//a6TdLbBnbXxtIuw214Ha4fQrla9VHrjylb1unXpezIqVVVH8e4dfSE2yJsy7iz19UJ1pIEZSs8gqO95Ksrbwy9InuwH8R1n+XXyNe0/v6oWp89jGAoqmLz75ZieaV7jKTh+S6qKmPXNgq1ED4csklqkhcRv8wo32PEpe0xHijaWfCx0NE+Zo/2RxmHZ15adMBb1kcZj9RTGL81soLTQxjTvs09TA9hTOwneJa2bZP4FcQqvMBLHBZiPSYOy3ufeqWG3RUXiy5MxaNUfJW8Lb7bG4OPVWK/3Ben0C0BJnHHPEW1BdP3xtsk8cY8R7VmSkxTfgljfgljfgljfgljfgljfgljfgljfgljfgljfgljftEwHhsVeqcexPGiaUTB2IU+6veo2G5vp1vF1V8PaAyU3S4CxmTuduj7doQhXjSN+hkPjgpdF8M6Vxp1MyatTo8xjvXaNOpnPHZ3AcupW5G2qpvx4J1IdY3enNUuYcxvTRjzWxPG/NaEMb81YcxvTRjzW7uf8WH06Z2yc2G86M7aRL2LcYJrlIqo207VeKqPSx0XdnVWB/Uyxt6A64gqRUZuOzXGQXXXJloTxlUDvvPOAR7NsQfSKcWadRHE8Y/O6sQa0JjxGsE47ggvNz+P8D1HUW/zpuvffGoxIvq5iiz0zxhjpNdawxJjU45UX1cpLvUOv7g1/dccc5BGAxgjRF2J3pgYp+AHpxmnuNQ7jENJulaRgmkaDWP8q0UhhTzQs9Y74Z43Kv1bkmPGTeFQ/xlj0kivdbXGgG2ryD9jTBrpta7WGLBtFflvjMdYk3dpfmvCmN+aMOa3Joz5rQljfmvCmN+aMOa3Joz5rQljfmvCmN/amxmPjQpd14sZy7rNQ8n6Y35jz1pH39UX37uOnhByZ8BnhnjRNKLY18QQFfqayONF04hofx6FXlWRXLLPlF/CmF/CmF/CmF/CmF/CmF/CmF/vZWz16lXCtvwfbg4NZWy1UnpUQ80aqVV6UNErjWRslFcFMqz7XXdpH2QcFrBXPTfUt/InGVfbiKuzExPY5m6dCNt0WHxMjON/HfsE43lLDTbfrVKFaYwOK1bjOOKGlDBuaOX/sO7UHFAp3Xg7gPmTJSwE5vQvMIaZAdK2ga2e8EBA4dC6rXY60J5SlOflPmSECunut0sC/BwvmA321e8bjH3f8z5iiCwMNjx0M9/vrL8Q1h/h+6pHBpiCld6kh5/gLOJnvEzab2LC9A8w9rc2tjx0U8gajowDlJ+nGHZ54SELxut0HS+Qmj/nXP2vbzAOlA2y8G0GFbfLIWN3b7vduYFxNo7qtK1umx4vgPuNnw0W5PfjzOXdoeHveRpHAYvQ/EAcRk5kjDrDGGqMTbT2oX78wxt9AgBxmgHhHzTOjCE7tL8fJ66fYgx+iDCpyTmODOUJxpiJ4zFO/D7IWPs5hQndV+M4bENawmFwgud+tDM22bwiWDBx+hdmyfARxjiFjT0OWfvpa+ja3mGk0oy2nbE/C+fK3tBifmw+M3cD/wBCzw9gB7N6TjPI36g0xSszLqTDTBU/W4sX02eEOfcXfJs/WD/PfBqss68tccjPglrGHbrLR5+cF+/XXS3Vd924N+gmxm0bw1+i79yx90kY80sY80sY80sY80sY80sY80sY80sY8+sPrcT7D9kBrsQAAAAASUVORK5CYII=;base64,iVBORw0KGgoAAAANSUhEUgAAAUMAAACMCAMAAADRJDvgAAADAFBMVEUAAAAAADMAAGYAAJkAAMwAAP8AMwAAMzMAM2YAM5kAM8wAM/8AZgAAZjMAZmYAZpkAZswAZv8AmQAAmTMAmWYAmZkAmcwAmf8AzAAAzDMAzGYAzJkAzMwAzP8A/wAA/zMA/2YA/5kA/8wA//8zAAAzADMzAGYzAJkzAMwzAP8zMwAzMzMzM2YzM5kzM8wzM/8zZgAzZjMzZmYzZpkzZswzZv8zmQAzmTMzmWYzmZkzmcwzmf8zzAAzzDMzzGYzzJkzzMwzzP8z/wAz/zMz/2Yz/5kz/8wz//9mAABmADNmAGZmAJlmAMxmAP9mMwBmMzNmM2ZmM5lmM8xmM/9mZgBmZjNmZmZmZplmZsxmZv9mmQBmmTNmmWZmmZlmmcxmmf9mzABmzDNmzGZmzJlmzMxmzP9m/wBm/zNm/2Zm/5lm/8xm//+ZAACZADOZAGaZAJmZAMyZAP+ZMwCZMzOZM2aZM5mZM8yZM/+ZZgCZZjOZZmaZZpmZZsyZZv+ZmQCZmTOZmWaZmZmZmcyZmf+ZzACZzDOZzGaZzJmZzMyZzP+Z/wCZ/zOZ/2aZ/5mZ/8yZ///MAADMADPMAGbMAJnMAMzMAP/MMwDMMzPMM2bMM5nMM8zMM//MZgDMZjPMZmbMZpnMZszMZv/MmQDMmTPMmWbMmZnMmczMmf/MzADMzDPMzGbMzJnMzMzMzP/M/wDM/zPM/2bM/5nM/8zM////AAD/ADP/AGb/AJn/AMz/AP//MwD/MzP/M2b/M5n/M8z/M///ZgD/ZjP/Zmb/Zpn/Zsz/Zv//mQD/mTP/mWb/mZn/mcz/mf//zAD/zDP/zGb/zJn/zMz/zP///wD//zP//2b//5n//8z///8AAAAYGBgqKio8PDwODg4vLy9KSkozMzM7OztBQUEyMjIgICAAAAAAAAAAAAAAAAAAAAAAAAAAAAAAAAAAAAAAAAAAAAAAAAAAAAAAAAAAAAAAAAAAAAAAAAAAAAAAAAAAAAAAAAAAAAAAAAAAAAAAAAAAAAAAAABHQyoQAAABAHRSTlP///////////////////////////////////////////////////////////////////////////////////////////////////////////////////////////////////////////////////////////////////////////////////////////////////////////////////////////////////////////////////////////////////////////////////////////////8A//////////////8AAAAAAAAAAAAAAAAAAAAAAAAAAAAAAAAAAAAAl/LJOQAAAAlwSFlzAAAOxAAADsQBlSsOGwAACNdJREFUeJztnQmWrCAMRWs/7sf9sJ/sx+20JmEQGQ0KXcU7//zqQTFeGUKI9GebkurT24Av0GQo12Qo12Qo12Qo12Qo12Qo12Qo12Qo12Qo12Qo12Qo12Qo12Qo12Qo12Qo12Qo12Qo12Qo12Qo12Qo12Qo12Qo12Qo12QoVzOGoIrV6pIRrZ9SrW0u2IzhupYibGR53BIoVCtL2jGEwgPheYaFB7ayZDKUazKU6w2GcP54iyGA/s83pLEl7RkqOAZp5zeg6GYU3cM7DGE7Bg22BOjb3XUA+gKaWiJnyKPtcpil0Fj8Qt/GbveqyHxFMBfxJZMCsuR4ZK4laCT+v3+zsiUrSupsiRnC4jAE5Vh+fBBAQMuVsfxJD3FdyZJ1U/hEieHh8CDW/T+0B01nL0j6UOUMuUFQW94pIUZs0NjzYMM5zAbgRr3CWtzt10otii058AFYSw5jgA3aTm1Z3KTbMsz610An7HXxCYr0cFYomTVtozIsP0EtzYcWXb1rfZt/y5CaHf8E+yfq8e8bYsr7IYb7F3zXzPDoSW8zBFuvxQzXMpnj2zG8EXPg1kcMAZ23u0Y44AoR7AN4jGFRxMKSa8Yw2IsvkXElfPO3ZbsFKjSgJfTD8x0YlbXtBxgGVWCNfHDxCFZb8v8ZFjJIXL+oJn85Qzu43Ln6kiRIvjQkJ5j2Dng2agY9LvqYOOiyrF5kyJOG9Ghxt1vEKpw4cx88cYKHVlLA4eo+6eFZLcf6wO79kwOL0y2e7xx+F+B0cVO6iNcY7tPl43HitXGWxfPAQDH1FM2wTkGGQMHHpTesRevxoZDF5aAF5ayzqI2CFnzsqoB8V4LJZbzHUNlp6qbgOjBbqcr5n6ZOnjnd2+UYrDcHw4WCSBiJ8A9aKC7GFBfqHlZFLZvCFmQ3I6RG/l5bJoYKLVFH6EYFWhOranAxB2MoBhmGPXTqRxbd5q/PyXX68TmuVCq3G/1LDEI657/HUAdv+F7Aiyz7ZZVSPHlEFLBOn1A0prCIYUrv1sPq0koa9I3Os5ZhXsMyLOJzxxX6KYbZweWeS/5jDBFTdKp/05OsmqcUKcxwqYz5nCxQ4chIQOf4QPi+VMyW9LSEiiyOOUCYYfT5hSIWHsNP0aleqzCxr3jV8XQymRc81OY5d7HaVlCzy2qCrQ5NY7CfolYSqYc3swvQuYOrhyxh2DOO3YkhrwNsk+HtLJdLRkesOAhcPaQhGIL9DLgR5MWbkeHC8JrlYtaaK0zWxTmza6WvXnjqVXD6eI4hmNwAilDsYwCiNHGR1QSJlGuBznKhfBuOGtEYp3S+Sz7LxQ48PH9TlJmgdMZlBUO09xTh4K/V+Wk2Zwgc5zAMTzGf4+dukAiDRo7TATrLheoeUL4NFkIZL1hAyYipfZhV6WAFjTnhk92pLOfbbDzUkyVKT4A54YKzVvBxqZa5IheGFHIzDKk1LTpI9KFUmsWpODpQqDjuS+jBMETLy9sy3T7ooBP+/Oq+uUuG9mkqIIS8/KrTldQ58+fqsLZguBI8TuACk7RiVi5XCvnqK5/7Qwjm21ARJt+mnKE5VemuoLgtH8vVx6PVT1PHsblI13SprvUwF/NJjcvJk7mAeoZa2/XqoYlO6NSrtucY5tXat4lcpdQ/ZBya8TYZ2qsUMrQrASY83jUfeyyGYfkxB3clQA/lXRkWzdNjMYfCqM/qB37Cd6c9Jl2qKd2PHpq2bHrG4ujHE+/4FF7av93E2Yksl4ScGKHxO+yTy8Zgg1G4oBrlNA8Yg3Ug2cKdxUBBWsQzGo7hqZo5XZvbhTyY0H1HgzE803E7rPOq9FAUH19f5knDFshuAJ2MY0M6ZzLuIOzHzx9I6L6rx/NtbLINZ7rajBeFk2x8hwUrmT9anKveZQSQ5dw11Du5Ipxvs1NZlctQ+8dYUS9ey5L6dhtncHmeIQYh+B+Fwpz3AXg9agutefoVL+CKjNEtjjGmhFhclyxDcb4RKA7BMNgmr2zCPnH/wWUAhuGxITARiyUE9x5cujOMvboXSmiITc46Dy7tGN6aL0e7s2CiZ/x5de0W270ndSduE60/kWab2vCgH8WO7+ul+rFIq72O1RuvXW0dB5ee740mFtNjNPxTFL3px05np8GlF8N004v+zodrotjAKyQ9KPZhmLnXRIDZuwzvHWKj2D26xfYMaWXcjbjwWrNdkM61uUSiZn4N5KBYH46XqMG+ImSS2VXGzbcBzFCgfAjQa/RLrqok36YvqGbRJFpXDRu9fH8bbdMp34YxUKKM3ZuF8m0yFNJ7pZQsJJWMzw23EGy8z5K3N4uijA1vb5brySeqmaWifEZ20ZrnsAy58er8GF9xhpznhg8gQyBfEf8/w1xHHrpDxa/HHfyzHV62IoYZwuljXIYlijDEvLYdcnAJX0drMXEwWxHtFhOuTTqBU3/7bQydHjFYy867t2QHJUx35kxNeoXZ5JGCjqMPyfDe+ym+wrcGAM7bA7mKaF6E57qnEzgxd09xKvmIDNtkaKT9Gl3/MhWRZ5OwmXRcvaTobDo3IsM2KkuBydy/bsvJoe1rGZZms6Wz0H+bYenAlAbwb/3DFipOCMx0m7/MsODFWlZmYCrwDr6UYUVOZboiit2DOg3EsGpv20f35a3UQAyrsDy9Q3SNxmFYmaU/UEUch2HlOshAFXEYhtUvOoxTEUdhmF0huJ7RO93LqA/DwBJRYB3pdMr194Gf9KmanRgWVDqvnr0896hRJ4YFx0yGaU2GcrVi+Nw6U436MqzYw8Vm3HmnOMX8HkPz54rcPVxoZRp/fWVIrwjRqeZP8/CfCDqO+T2Geuff8x4udtePQD08DrI76erdSswpv8cQ1s3mlOj0CGf3mQBDelGITgG9Ucgv10OAUE5JLC/HnPLOGkmN+jHE1hjeCgYCe7i8vM5Uo//t23iaDD3dYHjdqP0VzfmyXH0YLiVaq0/5/BLD79JkKNdkKNdkKNdkKNdkKNdkKNdkKNdkKNdkKNdkKNdkKNdkKNdkKNdkKNdkKNcfd58wRMx+6IkAAAAASUVORK5CYII=;" parent="1" vertex="1">
          <mxGeometry x="510" y="135" width="129.06" height="130" as="geometry" />
        </mxCell>
        <mxCell id="dZQNJgFwioYakfUk7VY2-3" value="" style="endArrow=open;html=1;strokeWidth=3;endFill=0;" parent="1" edge="1">
          <mxGeometry width="50" height="50" relative="1" as="geometry">
            <mxPoint x="567" y="15" as="sourcePoint" />
            <mxPoint x="240" y="170" as="targetPoint" />
            <Array as="points">
              <mxPoint x="240" y="15" />
            </Array>
          </mxGeometry>
        </mxCell>
        <mxCell id="dZQNJgFwioYakfUk7VY2-4" value="&lt;font style=&quot;font-size: 16px&quot;&gt;(2) Instanciation&lt;br&gt;&lt;/font&gt;" style="text;html=1;align=center;verticalAlign=middle;resizable=0;points=[];autosize=1;" parent="1" vertex="1">
          <mxGeometry x="254.12" y="90" width="130" height="20" as="geometry" />
        </mxCell>
        <mxCell id="dZQNJgFwioYakfUk7VY2-5" value="&lt;b&gt;&lt;font style=&quot;font-size: 15px&quot;&gt;Traces&lt;/font&gt;&lt;/b&gt;" style="shape=cylinder3;whiteSpace=wrap;html=1;boundedLbl=1;backgroundOutline=1;size=15;" parent="1" vertex="1">
          <mxGeometry x="1346" y="245" width="60" height="80" as="geometry" />
        </mxCell>
        <mxCell id="dZQNJgFwioYakfUk7VY2-6" value="&lt;b&gt;&lt;font style=&quot;font-size: 15px&quot;&gt;Self-Adaptive System&lt;br&gt;&lt;/font&gt;&lt;/b&gt;" style="shape=cube;whiteSpace=wrap;html=1;boundedLbl=1;backgroundOutline=1;darkOpacity=0.05;darkOpacity2=0.1;" parent="1" vertex="1">
          <mxGeometry x="1066" y="215" width="160" height="110" as="geometry" />
        </mxCell>
        <mxCell id="dZQNJgFwioYakfUk7VY2-7" value="" style="endArrow=classic;html=1;strokeWidth=3;exitX=1;exitY=0.75;exitDx=0;exitDy=0;" parent="1" source="dZQNJgFwioYakfUk7VY2-22" edge="1">
          <mxGeometry width="50" height="50" relative="1" as="geometry">
            <mxPoint x="298.12" y="271.5" as="sourcePoint" />
            <mxPoint x="472" y="219" as="targetPoint" />
          </mxGeometry>
        </mxCell>
        <mxCell id="dZQNJgFwioYakfUk7VY2-8" value="&lt;font style=&quot;font-size: 15px&quot;&gt;(3) Initialise test&lt;br&gt;&lt;/font&gt;" style="text;html=1;align=center;verticalAlign=middle;resizable=0;points=[];autosize=1;" parent="1" vertex="1">
          <mxGeometry x="354" y="195" width="120" height="20" as="geometry" />
        </mxCell>
        <mxCell id="dZQNJgFwioYakfUk7VY2-9" value="" style="endArrow=classic;html=1;strokeWidth=3;exitX=1;exitY=0.5;exitDx=0;exitDy=0;" parent="1" edge="1">
          <mxGeometry width="50" height="50" relative="1" as="geometry">
            <mxPoint x="754" y="200" as="sourcePoint" />
            <mxPoint x="836" y="200" as="targetPoint" />
          </mxGeometry>
        </mxCell>
        <mxCell id="dZQNJgFwioYakfUk7VY2-11" value="&lt;b&gt;&lt;font style=&quot;font-size: 15px&quot;&gt;Initial Configuration(s)&lt;/font&gt;&lt;/b&gt;" style="text;html=1;align=center;verticalAlign=middle;resizable=0;points=[];autosize=1;" parent="1" vertex="1">
          <mxGeometry x="153.76" y="300" width="170" height="20" as="geometry" />
        </mxCell>
        <mxCell id="dZQNJgFwioYakfUk7VY2-12" value="" style="endArrow=classic;html=1;strokeWidth=3;entryX=0;entryY=0.5;entryDx=0;entryDy=0;entryPerimeter=0;exitX=1.02;exitY=0.645;exitDx=0;exitDy=0;exitPerimeter=0;" parent="1" source="dZQNJgFwioYakfUk7VY2-6" target="dZQNJgFwioYakfUk7VY2-5" edge="1">
          <mxGeometry width="50" height="50" relative="1" as="geometry">
            <mxPoint x="1026" y="265" as="sourcePoint" />
            <mxPoint x="1076" y="215" as="targetPoint" />
          </mxGeometry>
        </mxCell>
        <mxCell id="dZQNJgFwioYakfUk7VY2-13" value="&lt;font style=&quot;font-size: 15px&quot;&gt;(6) Execution&lt;br&gt;&lt;/font&gt;" style="text;html=1;align=center;verticalAlign=middle;resizable=0;points=[];autosize=1;" parent="1" vertex="1">
          <mxGeometry x="1236" y="265" width="100" height="20" as="geometry" />
        </mxCell>
        <mxCell id="dZQNJgFwioYakfUk7VY2-15" value="&lt;b&gt;&lt;font style=&quot;font-size: 16px&quot;&gt;Adaptation Policies&lt;br&gt;&lt;/font&gt;&lt;/b&gt;" style="whiteSpace=wrap;html=1;shape=mxgraph.basic.document" parent="1" vertex="1">
          <mxGeometry x="1126" y="35" width="100" height="100" as="geometry" />
        </mxCell>
        <mxCell id="dZQNJgFwioYakfUk7VY2-16" value="&lt;b&gt;&lt;font style=&quot;font-size: 15px&quot;&gt;Temporal Properties&lt;br&gt;&lt;/font&gt;&lt;/b&gt;" style="whiteSpace=wrap;html=1;shape=mxgraph.basic.document" parent="1" vertex="1">
          <mxGeometry x="1326" y="35" width="100" height="100" as="geometry" />
        </mxCell>
        <mxCell id="dZQNJgFwioYakfUk7VY2-17" value="" style="endArrow=classic;endFill=1;endSize=6;html=1;strokeWidth=3;exitX=0.5;exitY=1;exitDx=0;exitDy=0;exitPerimeter=0;" parent="1" source="dZQNJgFwioYakfUk7VY2-5" edge="1">
          <mxGeometry width="160" relative="1" as="geometry">
            <mxPoint x="1120" y="650" as="sourcePoint" />
            <mxPoint x="830" y="390" as="targetPoint" />
            <Array as="points">
              <mxPoint x="1376" y="390" />
            </Array>
          </mxGeometry>
        </mxCell>
        <mxCell id="dZQNJgFwioYakfUk7VY2-18" value="&lt;font style=&quot;font-size: 15px&quot;&gt;(8) Retrieve&lt;br&gt;&lt;/font&gt;" style="text;html=1;align=center;verticalAlign=middle;resizable=0;points=[];autosize=1;" parent="1" vertex="1">
          <mxGeometry x="890" y="370" width="90" height="20" as="geometry" />
        </mxCell>
        <mxCell id="dZQNJgFwioYakfUk7VY2-20" value="" style="shape=flexArrow;endArrow=classic;startArrow=classic;html=1;strokeWidth=3;startWidth=37;startSize=10.65;endWidth=37;endSize=10.65;width=18;exitX=0.5;exitY=1;exitDx=0;exitDy=0;exitPerimeter=0;entryX=0.5;entryY=0;entryDx=0;entryDy=0;entryPerimeter=0;" parent="1" source="dZQNJgFwioYakfUk7VY2-16" target="dZQNJgFwioYakfUk7VY2-5" edge="1">
          <mxGeometry width="50" height="50" relative="1" as="geometry">
            <mxPoint x="1323" y="165" as="sourcePoint" />
            <mxPoint x="1406" y="235" as="targetPoint" />
          </mxGeometry>
        </mxCell>
        <mxCell id="dZQNJgFwioYakfUk7VY2-21" value="" style="rounded=1;whiteSpace=wrap;html=1;" parent="1" vertex="1">
          <mxGeometry x="103.76" y="190" width="40" height="35" as="geometry" />
        </mxCell>
        <mxCell id="dZQNJgFwioYakfUk7VY2-22" value="" style="rounded=1;whiteSpace=wrap;html=1;" parent="1" vertex="1">
          <mxGeometry x="181.12" y="175" width="180" height="60" as="geometry" />
        </mxCell>
        <mxCell id="dZQNJgFwioYakfUk7VY2-23" value="" style="rounded=1;whiteSpace=wrap;html=1;" parent="1" vertex="1">
          <mxGeometry x="211.12" y="185" width="60" height="35" as="geometry" />
        </mxCell>
        <mxCell id="dZQNJgFwioYakfUk7VY2-24" value="" style="rounded=1;whiteSpace=wrap;html=1;" parent="1" vertex="1">
          <mxGeometry x="301.12" y="185" width="50" height="35" as="geometry" />
        </mxCell>
        <mxCell id="dZQNJgFwioYakfUk7VY2-25" value="" style="rounded=1;whiteSpace=wrap;html=1;" parent="1" vertex="1">
          <mxGeometry x="171.12" y="245" width="50" height="30" as="geometry" />
        </mxCell>
        <mxCell id="dZQNJgFwioYakfUk7VY2-26" value="" style="rounded=1;whiteSpace=wrap;html=1;" parent="1" vertex="1">
          <mxGeometry x="271.12" y="245" width="40" height="30" as="geometry" />
        </mxCell>
        <mxCell id="dZQNJgFwioYakfUk7VY2-27" value="ir" style="rounded=0;whiteSpace=wrap;html=1;" parent="1" vertex="1">
          <mxGeometry x="123.76" y="195" width="30" height="10" as="geometry" />
        </mxCell>
        <mxCell id="dZQNJgFwioYakfUk7VY2-28" value="ir1" style="rounded=0;whiteSpace=wrap;html=1;" parent="1" vertex="1">
          <mxGeometry x="123.76" y="195" width="30" height="10" as="geometry" />
        </mxCell>
        <mxCell id="dZQNJgFwioYakfUk7VY2-29" value="ir3" style="rounded=0;whiteSpace=wrap;html=1;" parent="1" vertex="1">
          <mxGeometry x="201.12" y="253.5" width="30" height="10" as="geometry" />
        </mxCell>
        <mxCell id="dZQNJgFwioYakfUk7VY2-30" value="ir2" style="rounded=0;whiteSpace=wrap;html=1;" parent="1" vertex="1">
          <mxGeometry x="251.12" y="195" width="30" height="10" as="geometry" />
        </mxCell>
        <mxCell id="dZQNJgFwioYakfUk7VY2-31" value="if3" style="rounded=0;whiteSpace=wrap;html=1;" parent="1" vertex="1">
          <mxGeometry x="201.12" y="195" width="30" height="10" as="geometry" />
        </mxCell>
        <mxCell id="dZQNJgFwioYakfUk7VY2-32" value="if2" style="rounded=0;whiteSpace=wrap;html=1;" parent="1" vertex="1">
          <mxGeometry x="161.12" y="195" width="30" height="10" as="geometry" />
        </mxCell>
        <mxCell id="dZQNJgFwioYakfUk7VY2-33" value="if4" style="rounded=0;whiteSpace=wrap;html=1;" parent="1" vertex="1">
          <mxGeometry x="291.12" y="195" width="30" height="10" as="geometry" />
        </mxCell>
        <mxCell id="dZQNJgFwioYakfUk7VY2-34" value="if5" style="rounded=0;whiteSpace=wrap;html=1;" parent="1" vertex="1">
          <mxGeometry x="251.12" y="253.5" width="30" height="10" as="geometry" />
        </mxCell>
        <mxCell id="dZQNJgFwioYakfUk7VY2-35" value="" style="endArrow=none;html=1;exitX=1;exitY=0.5;exitDx=0;exitDy=0;entryX=0;entryY=0.5;entryDx=0;entryDy=0;" parent="1" source="dZQNJgFwioYakfUk7VY2-29" target="dZQNJgFwioYakfUk7VY2-34" edge="1">
          <mxGeometry width="50" height="50" relative="1" as="geometry">
            <mxPoint x="221.12" y="312" as="sourcePoint" />
            <mxPoint x="271.12" y="262" as="targetPoint" />
          </mxGeometry>
        </mxCell>
        <mxCell id="dZQNJgFwioYakfUk7VY2-36" value="" style="endArrow=none;html=1;exitX=1;exitY=0.5;exitDx=0;exitDy=0;entryX=0;entryY=0.5;entryDx=0;entryDy=0;" parent="1" source="dZQNJgFwioYakfUk7VY2-28" target="dZQNJgFwioYakfUk7VY2-32" edge="1">
          <mxGeometry width="50" height="50" relative="1" as="geometry">
            <mxPoint x="271.12" y="365" as="sourcePoint" />
            <mxPoint x="141.12" y="198" as="targetPoint" />
          </mxGeometry>
        </mxCell>
        <mxCell id="dZQNJgFwioYakfUk7VY2-37" value="C1" style="text;html=1;strokeColor=none;fillColor=none;align=center;verticalAlign=middle;whiteSpace=wrap;rounded=0;" parent="1" vertex="1">
          <mxGeometry x="100.00000000000001" y="200" width="33" height="20" as="geometry" />
        </mxCell>
        <mxCell id="dZQNJgFwioYakfUk7VY2-38" value="" style="endArrow=none;html=1;exitX=1;exitY=0.5;exitDx=0;exitDy=0;entryX=0;entryY=0.5;entryDx=0;entryDy=0;" parent="1" source="dZQNJgFwioYakfUk7VY2-32" target="dZQNJgFwioYakfUk7VY2-31" edge="1">
          <mxGeometry width="50" height="50" relative="1" as="geometry">
            <mxPoint x="231.12" y="295" as="sourcePoint" />
            <mxPoint x="281.12" y="245" as="targetPoint" />
          </mxGeometry>
        </mxCell>
        <mxCell id="dZQNJgFwioYakfUk7VY2-39" value="" style="endArrow=none;html=1;entryX=0;entryY=0.5;entryDx=0;entryDy=0;exitX=1;exitY=0.5;exitDx=0;exitDy=0;" parent="1" source="dZQNJgFwioYakfUk7VY2-30" target="dZQNJgFwioYakfUk7VY2-33" edge="1">
          <mxGeometry width="50" height="50" relative="1" as="geometry">
            <mxPoint x="191.12" y="275" as="sourcePoint" />
            <mxPoint x="241.12" y="225" as="targetPoint" />
          </mxGeometry>
        </mxCell>
        <mxCell id="dZQNJgFwioYakfUk7VY2-40" value="C3" style="text;html=1;strokeColor=none;fillColor=none;align=center;verticalAlign=middle;whiteSpace=wrap;rounded=0;" parent="1" vertex="1">
          <mxGeometry x="221.12" y="205" width="40" height="15" as="geometry" />
        </mxCell>
        <mxCell id="dZQNJgFwioYakfUk7VY2-41" value="C2" style="text;html=1;strokeColor=none;fillColor=none;align=center;verticalAlign=middle;whiteSpace=wrap;rounded=0;" parent="1" vertex="1">
          <mxGeometry x="181.12" y="215" width="40" height="20" as="geometry" />
        </mxCell>
        <mxCell id="dZQNJgFwioYakfUk7VY2-42" value="C4" style="text;html=1;strokeColor=none;fillColor=none;align=center;verticalAlign=middle;whiteSpace=wrap;rounded=0;" parent="1" vertex="1">
          <mxGeometry x="306.12" y="202.5" width="40" height="20" as="geometry" />
        </mxCell>
        <mxCell id="dZQNJgFwioYakfUk7VY2-43" value="C5" style="text;html=1;strokeColor=none;fillColor=none;align=center;verticalAlign=middle;whiteSpace=wrap;rounded=0;" parent="1" vertex="1">
          <mxGeometry x="161.12" y="248" width="40" height="27" as="geometry" />
        </mxCell>
        <mxCell id="dZQNJgFwioYakfUk7VY2-44" value="C6" style="text;html=1;strokeColor=none;fillColor=none;align=center;verticalAlign=middle;whiteSpace=wrap;rounded=0;" parent="1" vertex="1">
          <mxGeometry x="275.12" y="246.5" width="40" height="27" as="geometry" />
        </mxCell>
        <mxCell id="dZQNJgFwioYakfUk7VY2-45" value="&lt;b&gt;&lt;font style=&quot;font-size: 15px&quot;&gt;Component Model&lt;/font&gt;&lt;/b&gt;" style="text;html=1;align=center;verticalAlign=middle;resizable=0;points=[];autosize=1;" parent="1" vertex="1">
          <mxGeometry x="582.9999999999999" y="-60" width="150" height="20" as="geometry" />
        </mxCell>
        <mxCell id="dZQNJgFwioYakfUk7VY2-47" value="" style="endArrow=classic;html=1;strokeWidth=3;exitX=1;exitY=0.532;exitDx=0;exitDy=0;exitPerimeter=0;entryX=0.006;entryY=0.282;entryDx=0;entryDy=0;entryPerimeter=0;" parent="1" source="dZQNJgFwioYakfUk7VY2-46" target="dZQNJgFwioYakfUk7VY2-6" edge="1">
          <mxGeometry width="50" height="50" relative="1" as="geometry">
            <mxPoint x="1000" y="275" as="sourcePoint" />
            <mxPoint x="1148" y="246" as="targetPoint" />
          </mxGeometry>
        </mxCell>
        <mxCell id="dZQNJgFwioYakfUk7VY2-48" value="&lt;font style=&quot;font-size: 15px&quot;&gt;(5) Send controllable event&lt;br&gt;&lt;/font&gt;" style="text;html=1;align=center;verticalAlign=middle;resizable=0;points=[];autosize=1;" parent="1" vertex="1">
          <mxGeometry x="820" y="225" width="190" height="20" as="geometry" />
        </mxCell>
        <mxCell id="dZQNJgFwioYakfUk7VY2-49" value="" style="shape=or;whiteSpace=wrap;html=1;rotation=-90;" parent="1" vertex="1">
          <mxGeometry x="1510" y="230" width="50" height="100" as="geometry" />
        </mxCell>
        <mxCell id="dZQNJgFwioYakfUk7VY2-50" value="" style="endArrow=classic;html=1;strokeWidth=3;exitX=1;exitY=0.5;exitDx=0;exitDy=0;exitPerimeter=0;entryX=0.4;entryY=0.04;entryDx=0;entryDy=0;entryPerimeter=0;" parent="1" source="dZQNJgFwioYakfUk7VY2-5" target="dZQNJgFwioYakfUk7VY2-49" edge="1">
          <mxGeometry width="50" height="50" relative="1" as="geometry">
            <mxPoint x="1406" y="285" as="sourcePoint" />
            <mxPoint x="1523" y="285" as="targetPoint" />
          </mxGeometry>
        </mxCell>
        <mxCell id="dZQNJgFwioYakfUk7VY2-51" value="" style="endArrow=classic;html=1;strokeWidth=3;exitX=0;exitY=0.5;exitDx=0;exitDy=0;exitPerimeter=0;entryX=0.7;entryY=0.9;entryDx=0;entryDy=0;entryPerimeter=0;" parent="1" source="dZQNJgFwioYakfUk7VY2-49" target="dZQNJgFwioYakfUk7VY2-49" edge="1">
          <mxGeometry width="50" height="50" relative="1" as="geometry">
            <mxPoint x="1041.74" y="460" as="sourcePoint" />
            <mxPoint x="1606" y="265" as="targetPoint" />
          </mxGeometry>
        </mxCell>
        <mxCell id="dZQNJgFwioYakfUk7VY2-52" value="&lt;font style=&quot;font-size: 15px&quot;&gt;(7) Measure&lt;/font&gt;" style="text;html=1;align=center;verticalAlign=middle;resizable=0;points=[];autosize=1;" parent="1" vertex="1">
          <mxGeometry x="1400" y="260" width="100" height="20" as="geometry" />
        </mxCell>
        <mxCell id="dZQNJgFwioYakfUk7VY2-53" value="&lt;font style=&quot;font-size: 15px&quot;&gt;&lt;b&gt;Extra-functional Properties&lt;/b&gt;&lt;/font&gt;" style="text;html=1;align=center;verticalAlign=middle;resizable=0;points=[];autosize=1;" parent="1" vertex="1">
          <mxGeometry x="1410" y="310" width="210" height="20" as="geometry" />
        </mxCell>
        <mxCell id="dZQNJgFwioYakfUk7VY2-54" value="&lt;font style=&quot;font-size: 15px&quot;&gt;Restricts&lt;/font&gt;" style="text;html=1;align=center;verticalAlign=middle;resizable=0;points=[];autosize=1;" parent="1" vertex="1">
          <mxGeometry x="1100" y="145" width="70" height="20" as="geometry" />
        </mxCell>
        <mxCell id="dZQNJgFwioYakfUk7VY2-55" value="" style="shape=flexArrow;endArrow=classic;startArrow=classic;html=1;strokeWidth=3;startWidth=37;startSize=10.78;endWidth=37;endSize=8.33;width=20;entryX=1.02;entryY=0.97;entryDx=0;entryDy=0;entryPerimeter=0;" parent="1" target="dZQNJgFwioYakfUk7VY2-15" edge="1">
          <mxGeometry width="50" height="50" relative="1" as="geometry">
            <mxPoint x="1346" y="249" as="sourcePoint" />
            <mxPoint x="1206" y="135" as="targetPoint" />
          </mxGeometry>
        </mxCell>
        <mxCell id="dZQNJgFwioYakfUk7VY2-56" value="&lt;font style=&quot;font-size: 15px&quot;&gt;Ensures&lt;/font&gt;" style="text;html=1;align=center;verticalAlign=middle;resizable=0;points=[];autosize=1;" parent="1" vertex="1">
          <mxGeometry x="1280" y="155" width="70" height="20" as="geometry" />
        </mxCell>
        <mxCell id="DUcfawQeng76Yq1Bs744-1" value="" style="shape=flexArrow;endArrow=classic;html=1;exitX=0.5;exitY=1;exitDx=0;exitDy=0;exitPerimeter=0;endWidth=35.55555555555556;endSize=9.716666666666667;width=21.666666666666668;strokeWidth=3;" parent="1" source="dZQNJgFwioYakfUk7VY2-15" edge="1">
          <mxGeometry width="50" height="50" relative="1" as="geometry">
            <mxPoint x="1146" y="155" as="sourcePoint" />
            <mxPoint x="1176" y="212" as="targetPoint" />
            <Array as="points" />
          </mxGeometry>
        </mxCell>
        <mxCell id="_SEX4U5vxNxY59ubQdlH-2" value="" style="endArrow=classic;html=1;strokeWidth=3;exitX=0;exitY=0;exitDx=0;exitDy=0;exitPerimeter=0;entryX=1.006;entryY=0.589;entryDx=0;entryDy=0;entryPerimeter=0;" parent="1" source="dZQNJgFwioYakfUk7VY2-6" target="ivbXQMKR3xz6gGFe4MmB-5" edge="1">
          <mxGeometry width="50" height="50" relative="1" as="geometry">
            <mxPoint x="830" y="40" as="sourcePoint" />
            <mxPoint x="880" y="10" as="targetPoint" />
            <Array as="points">
              <mxPoint x="1066" y="23" />
            </Array>
          </mxGeometry>
        </mxCell>
        <mxCell id="_SEX4U5vxNxY59ubQdlH-3" value="" style="endArrow=classic;html=1;strokeWidth=3;entryX=1.003;entryY=0.588;entryDx=0;entryDy=0;entryPerimeter=0;" parent="1" edge="1">
          <mxGeometry width="50" height="50" relative="1" as="geometry">
            <mxPoint x="836" y="295" as="sourcePoint" />
            <mxPoint x="760.50631" y="295" as="targetPoint" />
          </mxGeometry>
        </mxCell>
        <mxCell id="_SEX4U5vxNxY59ubQdlH-5" value="&lt;font style=&quot;font-size: 15px&quot;&gt;(1) Specify&lt;/font&gt;" style="text;html=1;align=center;verticalAlign=middle;resizable=0;points=[];autosize=1;" parent="1" vertex="1">
          <mxGeometry x="880" y="-10" width="90" height="20" as="geometry" />
        </mxCell>
        <mxCell id="zuC4qfCXo2OvN4aDPd7j-3" value="" style="shape=image;imageAspect=0;aspect=fixed;verticalLabelPosition=bottom;verticalAlign=top;image=data:image/png,iVBORw0KGgoAAAANSUhEUgAAAIkAAACKCAMAAACpbplVAAADAFBMVEUAAAAAADMAAGYAAJkAAMwAAP8AMwAAMzMAM2YAM5kAM8wAM/8AZgAAZjMAZmYAZpkAZswAZv8AmQAAmTMAmWYAmZkAmcwAmf8AzAAAzDMAzGYAzJkAzMwAzP8A/wAA/zMA/2YA/5kA/8wA//8zAAAzADMzAGYzAJkzAMwzAP8zMwAzMzMzM2YzM5kzM8wzM/8zZgAzZjMzZmYzZpkzZswzZv8zmQAzmTMzmWYzmZkzmcwzmf8zzAAzzDMzzGYzzJkzzMwzzP8z/wAz/zMz/2Yz/5kz/8wz//9mAABmADNmAGZmAJlmAMxmAP9mMwBmMzNmM2ZmM5lmM8xmM/9mZgBmZjNmZmZmZplmZsxmZv9mmQBmmTNmmWZmmZlmmcxmmf9mzABmzDNmzGZmzJlmzMxmzP9m/wBm/zNm/2Zm/5lm/8xm//+ZAACZADOZAGaZAJmZAMyZAP+ZMwCZMzOZM2aZM5mZM8yZM/+ZZgCZZjOZZmaZZpmZZsyZZv+ZmQCZmTOZmWaZmZmZmcyZmf+ZzACZzDOZzGaZzJmZzMyZzP+Z/wCZ/zOZ/2aZ/5mZ/8yZ///MAADMADPMAGbMAJnMAMzMAP/MMwDMMzPMM2bMM5nMM8zMM//MZgDMZjPMZmbMZpnMZszMZv/MmQDMmTPMmWbMmZnMmczMmf/MzADMzDPMzGbMzJnMzMzMzP/M/wDM/zPM/2bM/5nM/8zM////AAD/ADP/AGb/AJn/AMz/AP//MwD/MzP/M2b/M5n/M8z/M///ZgD/ZjP/Zmb/Zpn/Zsz/Zv//mQD/mTP/mWb/mZn/mcz/mf//zAD/zDP/zGb/zJn/zMz/zP///wD//zP//2b//5n//8z///8AAABvb2+ioqJxcXHi4uJqamoYGBgiIiJmZmZSUlJbW1t6enp8fHx1dXVgYGBsbGxAQEA4ODgtLS09PT0NDQ0JCQlUVFReXl5QUFAlJSWpqakTExMoKCg+Pj4GBgYuLi4pKSlGRkYrKytKSkpHR0fv7+7e3t/7/PxVgQisAAAA2XRSTlP///////////////////////////////////////////////////////////////////////////////////////////////////////////////////////////////////////////////////////////////////////////////////////////////////////////////////////////////////////////////////////////////////////////////////////////////8A9EGGvAAAAAlwSFlzAAAOxAAADsQBlSsOGwAABzZJREFUeJztnFmS5CgMQPM+vg/zNYfRnEd/c5f2dcZIYNBmA86unI5IKiKr0mZ5LBaSkOu1/1/S69MAZ/qS2PQlselLYtOXxKYLEjzS+xrCu+oiEgQqevx6CwbAbW0BSeN/x7g0govafJK+wHOUsdpcEpmdvgCsQeTREEVDFJdEtprLrq6XY33otqdIKHNeZVC/4rZIkmrTuTacJcFKslcS/HttdgASNpJSb4ByQXLUkQoJ/LNGkvAg4ZLHJyySMAN/4vKChW46FsYELtfY3QJElBd1bRMke0riqxwPFpdH9UByGEzNOUNfBLaL2m5IUJCopvJCpufgGHpoD1jXD5TDkNdKWNslCSTYuB1wxMFemsfcJBPpfojpxXTU12oLhyRYsWlLiSchpRR1YjS12jClWC75MrZvHbagGxm0S+Gmf4xK8OWOxGSGZLLQYJWtviSgSxZHLX/ZzUsSR7CrNee32AjFPTsG6KNYEi9fe5ggU3gVdZn7PN5koBljl8SfRyBhjfcYDYaVCbdRF0WT+Lx5pHAbxDhhDvrNv+l1V5NEz+zxKL6ihyhiuZAATn8ViR6StvhWFBTUQ3LKSQdRkXSqL9APmjszJEW/ITkMpcb+zgVJGxLgXeUs4ZS9TVBVrrw5VTGIqqF7EqQttZEES/kqlTnIUo82I2jm1wSJTg9I3Ft/IgmvkrZOn5HQVHe1TZBwUXwXSdauoNeGb0lay0DPTXtiVnRq6EqXRVu+O/3Skq21p8ykcM6v5EyKcjn9MtI+am8LUIp+TY8nlDktm19Kr3VpH07CsQP6u3TColkbHRvS5m/FfitWK/BVoERVOyK/jAkUO/7UsQ/woz2ffkgrCJ6Rwpd1IO+2qYSg0x50zL1odTZvRDvBMKiztfw2t98b197R5qe8kDsc0qBWLw1KpN279o5Uxx19B4seL407vmiqk+Uj1T7wsx02Dlaq2Nwhu+JMEA4Unuo+hsZT6PFLWFoBfG4E7n1tW8Trk/SNp5e2neZB2t/4ila8b432Qxjbj4MJ1aoLsrkrVijCGK6xwSSLQyR3PRI9CCsKQde0Lj1sFzsNPxoUW9jvmCfZHJt6HcQp6++yDokn7ddJvPF0bdSehC2kTk2jPZX+grznxs6aKxLnmjsoL5EhqxZNw4NT9chbq1SwBxJ1zDXYbrWCAxWxU6rJo8eGYOJfMwcJrJD7i927KmaHVbP2Pfeq6IU8MzOzwy7brvfFkUsDlbQR42lKoSdnMiHp8pKkTva+oTJiHBJ//Fef475fwC5t0rhp65a3B0lWn2O5g/mEEUnk3VojiV1U6yRrAn/CvfUxEnPjUyR2OX6MxCzZT5HYh+dL8oBkCeQRyXulfbhf/ThJ6E8eIIn3Ynv2eJFY34NTxzHHlvWE1SHhy1k/qWqJrBicA9kwZX0vIatYrrLHJP5eTMpitrrBKZy6EIU5koR6+z9JpEfjpQsjg0gNNC8TmHqUSwxBbcw5aNeXJQkf6mJRG3W5pRT5/O73nZ+wd9zLn7ABicRc8exiY6K92S7ex3S2/bf7CujigB7LKCLjU/+J0+yAtzwnPurtvur7p728e1KQjOs+t3UjeaPszk569Tl1KSzmGwnr8pcUyOIkB9JmFt6Q356RN2jeQiuo+Ydsp3pmIAQyyABD6GrzOxeSXPtj6bSg2Mv1t/QRK0u+OVLLvI+dIOzG2xg4ZJVjOAwFUcsk+w8HTxA8v71+rGscjLhYY2F0YXPBd4TOnmXsNtZFtoOSxpuIQZL4fCc3PxAII49VHpzvxGdeCd1DrwiGskb73wBJfA6YJuNP6ATjwTlguMVsafDkrWcJg1buZWwHq8T4yuYjhgRLjbqdiKS5QItAdxiHUykD575wxtbcawUtQw5X7EnW4wp4b+AAyJVImCrGn5PsJeRfVPhHxp9Q69iirZ6TlGOBKRIOUdqFBfaABEqIMRZNYoyk2El8lkDaRw2TfxC7hXwy0dU2GglTAqVr2EJ3x0+sTmKTGac6Um6XYGc8NZd7z3A8ByrmSHCVgOCqS0Ils/aKrS0iuXAqd4oXqBEqxy5IoR41AAW2VxQ9M6Tbx7GgFGbBJHpwq0lNo1MeEFYNHsSCXsTHdgNz577g+NgUxce6V39XzPBecB/EDHtx1LIPHGLiK1Qm/ORJHLVVoB0bjvV6GVvOoR+mlfXYcp35HfH2vYY9+V7GRsdjQF0PSg6nwwZstU29g8BPSHsv42HQB2mdi+9lKMHz8DU8ZfJNvvumlIPzYz7l426ntlES5725Ve9jagrO+a7WDAl9nC7kCxPqLmXzvARkrryFd74P2L22tvgIJWwkp7d4hqTu6pXkV1p0ySb8q5LUGZ6SJ50TjT9/eV67kYTwrx6FqTGR6se5m60mU9sEyXvf6t2HaovedD778VDCqvYvNIrw7e+a3gEyVN3NG/FvAhmp7Y/4LwE/nL4kNn1JbPqS2PQlsek/QDYmir/YHm8AAAAASUVORK5CYII=;base64,iVBORw0KGgoAAAANSUhEUgAAAWMAAACxCAMAAAAmnSxDAAADAFBMVEUAAAAAADMAAGYAAJkAAMwAAP8AMwAAMzMAM2YAM5kAM8wAM/8AZgAAZjMAZmYAZpkAZswAZv8AmQAAmTMAmWYAmZkAmcwAmf8AzAAAzDMAzGYAzJkAzMwAzP8A/wAA/zMA/2YA/5kA/8wA//8zAAAzADMzAGYzAJkzAMwzAP8zMwAzMzMzM2YzM5kzM8wzM/8zZgAzZjMzZmYzZpkzZswzZv8zmQAzmTMzmWYzmZkzmcwzmf8zzAAzzDMzzGYzzJkzzMwzzP8z/wAz/zMz/2Yz/5kz/8wz//9mAABmADNmAGZmAJlmAMxmAP9mMwBmMzNmM2ZmM5lmM8xmM/9mZgBmZjNmZmZmZplmZsxmZv9mmQBmmTNmmWZmmZlmmcxmmf9mzABmzDNmzGZmzJlmzMxmzP9m/wBm/zNm/2Zm/5lm/8xm//+ZAACZADOZAGaZAJmZAMyZAP+ZMwCZMzOZM2aZM5mZM8yZM/+ZZgCZZjOZZmaZZpmZZsyZZv+ZmQCZmTOZmWaZmZmZmcyZmf+ZzACZzDOZzGaZzJmZzMyZzP+Z/wCZ/zOZ/2aZ/5mZ/8yZ///MAADMADPMAGbMAJnMAMzMAP/MMwDMMzPMM2bMM5nMM8zMM//MZgDMZjPMZmbMZpnMZszMZv/MmQDMmTPMmWbMmZnMmczMmf/MzADMzDPMzGbMzJnMzMzMzP/M/wDM/zPM/2bM/5nM/8zM////AAD/ADP/AGb/AJn/AMz/AP//MwD/MzP/M2b/M5n/M8z/M///ZgD/ZjP/Zmb/Zpn/Zsz/Zv//mQD/mTP/mWb/mZn/mcz/mf//zAD/zDP/zGb/zJn/zMz/zP///wD//zP//2b//5n//8z///8AAAA9PT03NzcxMTEcHBwtLS0FBQUiIiIQEBC6urohISFubm4KCgoWFhYqKioXFxcPDw85OTkGBgZFRUU6OjooKCh+fn42NjZOTk5ZWVkbGxsUFBQZGRkrKysgICBxcXE+Pj4pKSkAAAAAAAAAAAAAAAAAAAAAAADm/mQtAAABAHRSTlP///////////////////////////////////////////////////////////////////////////////////////////////////////////////////////////////////////////////////////////////////////////////////////////////////////////////////////////////////////////////////////////////////////////////////////////////8A////////////////////////////////////////////AAAAAAAAZ3rRbgAAAAlwSFlzAAAOxAAADsQBlSsOGwAACBdJREFUeJztndFhhCAMhtmHfdiHfbLPrVOBIKigKAlazf/QXkEDfCJiDlL1E3FL3V2BD0gY80sY80sY80sY80sY80sY80sY80sY80sY80sY80sY80sY80sY80sY80sY80sY80sY80sY80sY80sY80sY80sY80sY80sY80sY80sY80sY8+tGxtaad8lCuaG3MQZjKlX6r4Jak+5ibN9G2AuMLaTexNiW6vIGlcaLexiDuaXYAYLC/XkP41cOFEGwvUNVyiMQNLLb7cZAU5VmKBTFZQ3ftg0ZT4P1dFyvptlYU9sK1zrJ2aCpShNhkoaDTVOK7T2qsF1UN29pPNpo74nXhqZFLc/Vpuo2aba07WUq5BMV1Ghrp7NTTjga7inCB0NseIVx++DVoAZjO4dQTjiOLzfpFBKNVRiTzqR2B9tfpRonTj6hw15KOr/BSzqE8bG1OmPad5PDW4p2mj6OcYO1HcakE2dhfC7nioTxuZwrEsbncq5IGJ/LuSJhfC7nil7FePGViw6/lkUtHC/GbN02ixzU9QodWcPq6EtepJp4GWvnF5mweu9I8JKs/A7B8zKhV1op9MIsig2nLQ7oeEMwc4VstLaAnKpjQJeqc6nQYJqLsTc+9QsFKr62rxhDSFRKz61ZMv7FA6D+VtosM1fIxOJWjOfSQEGhOpcLZWdsMteIWTr/kLFrXGzt4ogIYsq06HAlYGx+yY+Q+zAjY1eafgpj1wHr78mRsc0ZL5zYJjG20cjiiIxx/c2/WZGxu6KlCpmZMcBTGIP2HUGdYFweK/KHT3GscJeDkvFcXHGssG64KA1dlwu9zhhPPNOPa4zdIy2v07KCrmcpHCFJGM/FVRi7B3ahOpcL5WNc0JIxFGZ3iyMWOaY0/YtVcaOWjdehoiNrUDqg3HI/SM4XYrfQcELXWGHavjDhfQfBUavJC0rwDhKK+8H+Jc2tcT3zCkXtGutgjEfYlkULBIxjcQP68RkNYdz7vWFQa1XT5OPY2gsYh1HLNL2WUY0VJk0+jq29gHEYteDgmddorXmQHPHMOyPxu60kjOkkjEsSxt0SxudyrkgYn8u5ImF8LueKhPG5nCt6LWNZ77ZO//a6TdLbBnbXxtIuw214Ha4fQrla9VHrjylb1unXpezIqVVVH8e4dfSE2yJsy7iz19UJ1pIEZSs8gqO95Ksrbwy9InuwH8R1n+XXyNe0/v6oWp89jGAoqmLz75ZieaV7jKTh+S6qKmPXNgq1ED4csklqkhcRv8wo32PEpe0xHijaWfCx0NE+Zo/2RxmHZ15adMBb1kcZj9RTGL81soLTQxjTvs09TA9hTOwneJa2bZP4FcQqvMBLHBZiPSYOy3ufeqWG3RUXiy5MxaNUfJW8Lb7bG4OPVWK/3Ben0C0BJnHHPEW1BdP3xtsk8cY8R7VmSkxTfgljfgljfgljfgljfgljfgljfgljfgljfgljfgljftEwHhsVeqcexPGiaUTB2IU+6veo2G5vp1vF1V8PaAyU3S4CxmTuduj7doQhXjSN+hkPjgpdF8M6Vxp1MyatTo8xjvXaNOpnPHZ3AcupW5G2qpvx4J1IdY3enNUuYcxvTRjzWxPG/NaEMb81YcxvTRjzW7uf8WH06Z2yc2G86M7aRL2LcYJrlIqo207VeKqPSx0XdnVWB/Uyxt6A64gqRUZuOzXGQXXXJloTxlUDvvPOAR7NsQfSKcWadRHE8Y/O6sQa0JjxGsE47ggvNz+P8D1HUW/zpuvffGoxIvq5iiz0zxhjpNdawxJjU45UX1cpLvUOv7g1/dccc5BGAxgjRF2J3pgYp+AHpxmnuNQ7jENJulaRgmkaDWP8q0UhhTzQs9Y74Z43Kv1bkmPGTeFQ/xlj0kivdbXGgG2ryD9jTBrpta7WGLBtFflvjMdYk3dpfmvCmN+aMOa3Joz5rQljfmvCmN+aMOa3Joz5rQljfmvCmN/amxmPjQpd14sZy7rNQ8n6Y35jz1pH39UX37uOnhByZ8BnhnjRNKLY18QQFfqayONF04hofx6FXlWRXLLPlF/CmF/CmF/CmF/CmF/CmF/CmF/vZWz16lXCtvwfbg4NZWy1UnpUQ80aqVV6UNErjWRslFcFMqz7XXdpH2QcFrBXPTfUt/InGVfbiKuzExPY5m6dCNt0WHxMjON/HfsE43lLDTbfrVKFaYwOK1bjOOKGlDBuaOX/sO7UHFAp3Xg7gPmTJSwE5vQvMIaZAdK2ga2e8EBA4dC6rXY60J5SlOflPmSECunut0sC/BwvmA321e8bjH3f8z5iiCwMNjx0M9/vrL8Q1h/h+6pHBpiCld6kh5/gLOJnvEzab2LC9A8w9rc2tjx0U8gajowDlJ+nGHZ54SELxut0HS+Qmj/nXP2vbzAOlA2y8G0GFbfLIWN3b7vduYFxNo7qtK1umx4vgPuNnw0W5PfjzOXdoeHveRpHAYvQ/EAcRk5kjDrDGGqMTbT2oX78wxt9AgBxmgHhHzTOjCE7tL8fJ66fYgx+iDCpyTmODOUJxpiJ4zFO/D7IWPs5hQndV+M4bENawmFwgud+tDM22bwiWDBx+hdmyfARxjiFjT0OWfvpa+ja3mGk0oy2nbE/C+fK3tBifmw+M3cD/wBCzw9gB7N6TjPI36g0xSszLqTDTBU/W4sX02eEOfcXfJs/WD/PfBqss68tccjPglrGHbrLR5+cF+/XXS3Vd924N+gmxm0bw1+i79yx90kY80sY80sY80sY80sY80sY80sY80sY8+sPrcT7D9kBrsQAAAAASUVORK5CYII=;base64,iVBORw0KGgoAAAANSUhEUgAAAUMAAACMCAMAAADRJDvgAAADAFBMVEUAAAAAADMAAGYAAJkAAMwAAP8AMwAAMzMAM2YAM5kAM8wAM/8AZgAAZjMAZmYAZpkAZswAZv8AmQAAmTMAmWYAmZkAmcwAmf8AzAAAzDMAzGYAzJkAzMwAzP8A/wAA/zMA/2YA/5kA/8wA//8zAAAzADMzAGYzAJkzAMwzAP8zMwAzMzMzM2YzM5kzM8wzM/8zZgAzZjMzZmYzZpkzZswzZv8zmQAzmTMzmWYzmZkzmcwzmf8zzAAzzDMzzGYzzJkzzMwzzP8z/wAz/zMz/2Yz/5kz/8wz//9mAABmADNmAGZmAJlmAMxmAP9mMwBmMzNmM2ZmM5lmM8xmM/9mZgBmZjNmZmZmZplmZsxmZv9mmQBmmTNmmWZmmZlmmcxmmf9mzABmzDNmzGZmzJlmzMxmzP9m/wBm/zNm/2Zm/5lm/8xm//+ZAACZADOZAGaZAJmZAMyZAP+ZMwCZMzOZM2aZM5mZM8yZM/+ZZgCZZjOZZmaZZpmZZsyZZv+ZmQCZmTOZmWaZmZmZmcyZmf+ZzACZzDOZzGaZzJmZzMyZzP+Z/wCZ/zOZ/2aZ/5mZ/8yZ///MAADMADPMAGbMAJnMAMzMAP/MMwDMMzPMM2bMM5nMM8zMM//MZgDMZjPMZmbMZpnMZszMZv/MmQDMmTPMmWbMmZnMmczMmf/MzADMzDPMzGbMzJnMzMzMzP/M/wDM/zPM/2bM/5nM/8zM////AAD/ADP/AGb/AJn/AMz/AP//MwD/MzP/M2b/M5n/M8z/M///ZgD/ZjP/Zmb/Zpn/Zsz/Zv//mQD/mTP/mWb/mZn/mcz/mf//zAD/zDP/zGb/zJn/zMz/zP///wD//zP//2b//5n//8z///8AAAAYGBgqKio8PDwODg4vLy9KSkozMzM7OztBQUEyMjIgICAAAAAAAAAAAAAAAAAAAAAAAAAAAAAAAAAAAAAAAAAAAAAAAAAAAAAAAAAAAAAAAAAAAAAAAAAAAAAAAAAAAAAAAAAAAAAAAAAAAAAAAAAAAAAAAABHQyoQAAABAHRSTlP///////////////////////////////////////////////////////////////////////////////////////////////////////////////////////////////////////////////////////////////////////////////////////////////////////////////////////////////////////////////////////////////////////////////////////////////8A//////////////8AAAAAAAAAAAAAAAAAAAAAAAAAAAAAAAAAAAAAl/LJOQAAAAlwSFlzAAAOxAAADsQBlSsOGwAACNdJREFUeJztnQmWrCAMRWs/7sf9sJ/sx+20JmEQGQ0KXcU7//zqQTFeGUKI9GebkurT24Av0GQo12Qo12Qo12Qo12Qo12Qo12Qo12Qo12Qo12Qo12Qo12Qo12Qo12Qo12Qo12Qo12Qo12Qo12Qo12Qo12Qo12Qo12Qo12QoVzOGoIrV6pIRrZ9SrW0u2IzhupYibGR53BIoVCtL2jGEwgPheYaFB7ayZDKUazKU6w2GcP54iyGA/s83pLEl7RkqOAZp5zeg6GYU3cM7DGE7Bg22BOjb3XUA+gKaWiJnyKPtcpil0Fj8Qt/GbveqyHxFMBfxJZMCsuR4ZK4laCT+v3+zsiUrSupsiRnC4jAE5Vh+fBBAQMuVsfxJD3FdyZJ1U/hEieHh8CDW/T+0B01nL0j6UOUMuUFQW94pIUZs0NjzYMM5zAbgRr3CWtzt10otii058AFYSw5jgA3aTm1Z3KTbMsz610An7HXxCYr0cFYomTVtozIsP0EtzYcWXb1rfZt/y5CaHf8E+yfq8e8bYsr7IYb7F3zXzPDoSW8zBFuvxQzXMpnj2zG8EXPg1kcMAZ23u0Y44AoR7AN4jGFRxMKSa8Yw2IsvkXElfPO3ZbsFKjSgJfTD8x0YlbXtBxgGVWCNfHDxCFZb8v8ZFjJIXL+oJn85Qzu43Ln6kiRIvjQkJ5j2Dng2agY9LvqYOOiyrF5kyJOG9Ghxt1vEKpw4cx88cYKHVlLA4eo+6eFZLcf6wO79kwOL0y2e7xx+F+B0cVO6iNcY7tPl43HitXGWxfPAQDH1FM2wTkGGQMHHpTesRevxoZDF5aAF5ayzqI2CFnzsqoB8V4LJZbzHUNlp6qbgOjBbqcr5n6ZOnjnd2+UYrDcHw4WCSBiJ8A9aKC7GFBfqHlZFLZvCFmQ3I6RG/l5bJoYKLVFH6EYFWhOranAxB2MoBhmGPXTqRxbd5q/PyXX68TmuVCq3G/1LDEI657/HUAdv+F7Aiyz7ZZVSPHlEFLBOn1A0prCIYUrv1sPq0koa9I3Os5ZhXsMyLOJzxxX6KYbZweWeS/5jDBFTdKp/05OsmqcUKcxwqYz5nCxQ4chIQOf4QPi+VMyW9LSEiiyOOUCYYfT5hSIWHsNP0aleqzCxr3jV8XQymRc81OY5d7HaVlCzy2qCrQ5NY7CfolYSqYc3swvQuYOrhyxh2DOO3YkhrwNsk+HtLJdLRkesOAhcPaQhGIL9DLgR5MWbkeHC8JrlYtaaK0zWxTmza6WvXnjqVXD6eI4hmNwAilDsYwCiNHGR1QSJlGuBznKhfBuOGtEYp3S+Sz7LxQ48PH9TlJmgdMZlBUO09xTh4K/V+Wk2Zwgc5zAMTzGf4+dukAiDRo7TATrLheoeUL4NFkIZL1hAyYipfZhV6WAFjTnhk92pLOfbbDzUkyVKT4A54YKzVvBxqZa5IheGFHIzDKk1LTpI9KFUmsWpODpQqDjuS+jBMETLy9sy3T7ooBP+/Oq+uUuG9mkqIIS8/KrTldQ58+fqsLZguBI8TuACk7RiVi5XCvnqK5/7Qwjm21ARJt+mnKE5VemuoLgtH8vVx6PVT1PHsblI13SprvUwF/NJjcvJk7mAeoZa2/XqoYlO6NSrtucY5tXat4lcpdQ/ZBya8TYZ2qsUMrQrASY83jUfeyyGYfkxB3clQA/lXRkWzdNjMYfCqM/qB37Cd6c9Jl2qKd2PHpq2bHrG4ujHE+/4FF7av93E2Yksl4ScGKHxO+yTy8Zgg1G4oBrlNA8Yg3Ug2cKdxUBBWsQzGo7hqZo5XZvbhTyY0H1HgzE803E7rPOq9FAUH19f5knDFshuAJ2MY0M6ZzLuIOzHzx9I6L6rx/NtbLINZ7rajBeFk2x8hwUrmT9anKveZQSQ5dw11Du5Ipxvs1NZlctQ+8dYUS9ey5L6dhtncHmeIQYh+B+Fwpz3AXg9agutefoVL+CKjNEtjjGmhFhclyxDcb4RKA7BMNgmr2zCPnH/wWUAhuGxITARiyUE9x5cujOMvboXSmiITc46Dy7tGN6aL0e7s2CiZ/x5de0W270ndSduE60/kWab2vCgH8WO7+ul+rFIq72O1RuvXW0dB5ee740mFtNjNPxTFL3px05np8GlF8N004v+zodrotjAKyQ9KPZhmLnXRIDZuwzvHWKj2D26xfYMaWXcjbjwWrNdkM61uUSiZn4N5KBYH46XqMG+ImSS2VXGzbcBzFCgfAjQa/RLrqok36YvqGbRJFpXDRu9fH8bbdMp34YxUKKM3ZuF8m0yFNJ7pZQsJJWMzw23EGy8z5K3N4uijA1vb5brySeqmaWifEZ20ZrnsAy58er8GF9xhpznhg8gQyBfEf8/w1xHHrpDxa/HHfyzHV62IoYZwuljXIYlijDEvLYdcnAJX0drMXEwWxHtFhOuTTqBU3/7bQydHjFYy867t2QHJUx35kxNeoXZ5JGCjqMPyfDe+ym+wrcGAM7bA7mKaF6E57qnEzgxd09xKvmIDNtkaKT9Gl3/MhWRZ5OwmXRcvaTobDo3IsM2KkuBydy/bsvJoe1rGZZms6Wz0H+bYenAlAbwb/3DFipOCMx0m7/MsODFWlZmYCrwDr6UYUVOZboiit2DOg3EsGpv20f35a3UQAyrsDy9Q3SNxmFYmaU/UEUch2HlOshAFXEYhtUvOoxTEUdhmF0huJ7RO93LqA/DwBJRYB3pdMr194Gf9KmanRgWVDqvnr0896hRJ4YFx0yGaU2GcrVi+Nw6U436MqzYw8Vm3HmnOMX8HkPz54rcPVxoZRp/fWVIrwjRqeZP8/CfCDqO+T2Geuff8x4udtePQD08DrI76erdSswpv8cQ1s3mlOj0CGf3mQBDelGITgG9Ucgv10OAUE5JLC/HnPLOGkmN+jHE1hjeCgYCe7i8vM5Uo//t23iaDD3dYHjdqP0VzfmyXH0YLiVaq0/5/BLD79JkKNdkKNdkKNdkKNdkKNdkKNdkKNdkKNdkKNdkKNdkKNdkKNdkKNdkKNdkKNcfd58wRMx+6IkAAAAASUVORK5CYII=;" parent="1" vertex="1">
          <mxGeometry x="515.47" y="265" width="129.06" height="130" as="geometry" />
        </mxCell>
        <mxCell id="zuC4qfCXo2OvN4aDPd7j-4" value="" style="shape=image;imageAspect=0;aspect=fixed;verticalLabelPosition=bottom;verticalAlign=top;image=data:image/png,iVBORw0KGgoAAAANSUhEUgAAAIkAAACKCAMAAACpbplVAAADAFBMVEUAAAAAADMAAGYAAJkAAMwAAP8AMwAAMzMAM2YAM5kAM8wAM/8AZgAAZjMAZmYAZpkAZswAZv8AmQAAmTMAmWYAmZkAmcwAmf8AzAAAzDMAzGYAzJkAzMwAzP8A/wAA/zMA/2YA/5kA/8wA//8zAAAzADMzAGYzAJkzAMwzAP8zMwAzMzMzM2YzM5kzM8wzM/8zZgAzZjMzZmYzZpkzZswzZv8zmQAzmTMzmWYzmZkzmcwzmf8zzAAzzDMzzGYzzJkzzMwzzP8z/wAz/zMz/2Yz/5kz/8wz//9mAABmADNmAGZmAJlmAMxmAP9mMwBmMzNmM2ZmM5lmM8xmM/9mZgBmZjNmZmZmZplmZsxmZv9mmQBmmTNmmWZmmZlmmcxmmf9mzABmzDNmzGZmzJlmzMxmzP9m/wBm/zNm/2Zm/5lm/8xm//+ZAACZADOZAGaZAJmZAMyZAP+ZMwCZMzOZM2aZM5mZM8yZM/+ZZgCZZjOZZmaZZpmZZsyZZv+ZmQCZmTOZmWaZmZmZmcyZmf+ZzACZzDOZzGaZzJmZzMyZzP+Z/wCZ/zOZ/2aZ/5mZ/8yZ///MAADMADPMAGbMAJnMAMzMAP/MMwDMMzPMM2bMM5nMM8zMM//MZgDMZjPMZmbMZpnMZszMZv/MmQDMmTPMmWbMmZnMmczMmf/MzADMzDPMzGbMzJnMzMzMzP/M/wDM/zPM/2bM/5nM/8zM////AAD/ADP/AGb/AJn/AMz/AP//MwD/MzP/M2b/M5n/M8z/M///ZgD/ZjP/Zmb/Zpn/Zsz/Zv//mQD/mTP/mWb/mZn/mcz/mf//zAD/zDP/zGb/zJn/zMz/zP///wD//zP//2b//5n//8z///8AAABvb2+ioqJxcXHi4uJqamoYGBgiIiJmZmZSUlJbW1t6enp8fHx1dXVgYGBsbGxAQEA4ODgtLS09PT0NDQ0JCQlUVFReXl5QUFAlJSWpqakTExMoKCg+Pj4GBgYuLi4pKSlGRkYrKytKSkpHR0fv7+7e3t/7/PxVgQisAAAA2XRSTlP///////////////////////////////////////////////////////////////////////////////////////////////////////////////////////////////////////////////////////////////////////////////////////////////////////////////////////////////////////////////////////////////////////////////////////////////8A9EGGvAAAAAlwSFlzAAAOxAAADsQBlSsOGwAABzZJREFUeJztnFmS5CgMQPM+vg/zNYfRnEd/c5f2dcZIYNBmA86unI5IKiKr0mZ5LBaSkOu1/1/S69MAZ/qS2PQlselLYtOXxKYLEjzS+xrCu+oiEgQqevx6CwbAbW0BSeN/x7g0govafJK+wHOUsdpcEpmdvgCsQeTREEVDFJdEtprLrq6XY33otqdIKHNeZVC/4rZIkmrTuTacJcFKslcS/HttdgASNpJSb4ByQXLUkQoJ/LNGkvAg4ZLHJyySMAN/4vKChW46FsYELtfY3QJElBd1bRMke0riqxwPFpdH9UByGEzNOUNfBLaL2m5IUJCopvJCpufgGHpoD1jXD5TDkNdKWNslCSTYuB1wxMFemsfcJBPpfojpxXTU12oLhyRYsWlLiSchpRR1YjS12jClWC75MrZvHbagGxm0S+Gmf4xK8OWOxGSGZLLQYJWtviSgSxZHLX/ZzUsSR7CrNee32AjFPTsG6KNYEi9fe5ggU3gVdZn7PN5koBljl8SfRyBhjfcYDYaVCbdRF0WT+Lx5pHAbxDhhDvrNv+l1V5NEz+zxKL6ihyhiuZAATn8ViR6StvhWFBTUQ3LKSQdRkXSqL9APmjszJEW/ITkMpcb+zgVJGxLgXeUs4ZS9TVBVrrw5VTGIqqF7EqQttZEES/kqlTnIUo82I2jm1wSJTg9I3Ft/IgmvkrZOn5HQVHe1TZBwUXwXSdauoNeGb0lay0DPTXtiVnRq6EqXRVu+O/3Skq21p8ykcM6v5EyKcjn9MtI+am8LUIp+TY8nlDktm19Kr3VpH07CsQP6u3TColkbHRvS5m/FfitWK/BVoERVOyK/jAkUO/7UsQ/woz2ffkgrCJ6Rwpd1IO+2qYSg0x50zL1odTZvRDvBMKiztfw2t98b197R5qe8kDsc0qBWLw1KpN279o5Uxx19B4seL407vmiqk+Uj1T7wsx02Dlaq2Nwhu+JMEA4Unuo+hsZT6PFLWFoBfG4E7n1tW8Trk/SNp5e2neZB2t/4ila8b432Qxjbj4MJ1aoLsrkrVijCGK6xwSSLQyR3PRI9CCsKQde0Lj1sFzsNPxoUW9jvmCfZHJt6HcQp6++yDokn7ddJvPF0bdSehC2kTk2jPZX+grznxs6aKxLnmjsoL5EhqxZNw4NT9chbq1SwBxJ1zDXYbrWCAxWxU6rJo8eGYOJfMwcJrJD7i927KmaHVbP2Pfeq6IU8MzOzwy7brvfFkUsDlbQR42lKoSdnMiHp8pKkTva+oTJiHBJ//Fef475fwC5t0rhp65a3B0lWn2O5g/mEEUnk3VojiV1U6yRrAn/CvfUxEnPjUyR2OX6MxCzZT5HYh+dL8oBkCeQRyXulfbhf/ThJ6E8eIIn3Ynv2eJFY34NTxzHHlvWE1SHhy1k/qWqJrBicA9kwZX0vIatYrrLHJP5eTMpitrrBKZy6EIU5koR6+z9JpEfjpQsjg0gNNC8TmHqUSwxBbcw5aNeXJQkf6mJRG3W5pRT5/O73nZ+wd9zLn7ABicRc8exiY6K92S7ex3S2/bf7CujigB7LKCLjU/+J0+yAtzwnPurtvur7p728e1KQjOs+t3UjeaPszk569Tl1KSzmGwnr8pcUyOIkB9JmFt6Q356RN2jeQiuo+Ydsp3pmIAQyyABD6GrzOxeSXPtj6bSg2Mv1t/QRK0u+OVLLvI+dIOzG2xg4ZJVjOAwFUcsk+w8HTxA8v71+rGscjLhYY2F0YXPBd4TOnmXsNtZFtoOSxpuIQZL4fCc3PxAII49VHpzvxGdeCd1DrwiGskb73wBJfA6YJuNP6ATjwTlguMVsafDkrWcJg1buZWwHq8T4yuYjhgRLjbqdiKS5QItAdxiHUykD575wxtbcawUtQw5X7EnW4wp4b+AAyJVImCrGn5PsJeRfVPhHxp9Q69iirZ6TlGOBKRIOUdqFBfaABEqIMRZNYoyk2El8lkDaRw2TfxC7hXwy0dU2GglTAqVr2EJ3x0+sTmKTGac6Um6XYGc8NZd7z3A8ByrmSHCVgOCqS0Ils/aKrS0iuXAqd4oXqBEqxy5IoR41AAW2VxQ9M6Tbx7GgFGbBJHpwq0lNo1MeEFYNHsSCXsTHdgNz577g+NgUxce6V39XzPBecB/EDHtx1LIPHGLiK1Qm/ORJHLVVoB0bjvV6GVvOoR+mlfXYcp35HfH2vYY9+V7GRsdjQF0PSg6nwwZstU29g8BPSHsv42HQB2mdi+9lKMHz8DU8ZfJNvvumlIPzYz7l426ntlES5725Ve9jagrO+a7WDAl9nC7kCxPqLmXzvARkrryFd74P2L22tvgIJWwkp7d4hqTu6pXkV1p0ySb8q5LUGZ6SJ50TjT9/eV67kYTwrx6FqTGR6se5m60mU9sEyXvf6t2HaovedD778VDCqvYvNIrw7e+a3gEyVN3NG/FvAhmp7Y/4LwE/nL4kNn1JbPqS2PQlsek/QDYmir/YHm8AAAAASUVORK5CYII=;base64,iVBORw0KGgoAAAANSUhEUgAAAWMAAACxCAMAAAAmnSxDAAADAFBMVEUAAAAAADMAAGYAAJkAAMwAAP8AMwAAMzMAM2YAM5kAM8wAM/8AZgAAZjMAZmYAZpkAZswAZv8AmQAAmTMAmWYAmZkAmcwAmf8AzAAAzDMAzGYAzJkAzMwAzP8A/wAA/zMA/2YA/5kA/8wA//8zAAAzADMzAGYzAJkzAMwzAP8zMwAzMzMzM2YzM5kzM8wzM/8zZgAzZjMzZmYzZpkzZswzZv8zmQAzmTMzmWYzmZkzmcwzmf8zzAAzzDMzzGYzzJkzzMwzzP8z/wAz/zMz/2Yz/5kz/8wz//9mAABmADNmAGZmAJlmAMxmAP9mMwBmMzNmM2ZmM5lmM8xmM/9mZgBmZjNmZmZmZplmZsxmZv9mmQBmmTNmmWZmmZlmmcxmmf9mzABmzDNmzGZmzJlmzMxmzP9m/wBm/zNm/2Zm/5lm/8xm//+ZAACZADOZAGaZAJmZAMyZAP+ZMwCZMzOZM2aZM5mZM8yZM/+ZZgCZZjOZZmaZZpmZZsyZZv+ZmQCZmTOZmWaZmZmZmcyZmf+ZzACZzDOZzGaZzJmZzMyZzP+Z/wCZ/zOZ/2aZ/5mZ/8yZ///MAADMADPMAGbMAJnMAMzMAP/MMwDMMzPMM2bMM5nMM8zMM//MZgDMZjPMZmbMZpnMZszMZv/MmQDMmTPMmWbMmZnMmczMmf/MzADMzDPMzGbMzJnMzMzMzP/M/wDM/zPM/2bM/5nM/8zM////AAD/ADP/AGb/AJn/AMz/AP//MwD/MzP/M2b/M5n/M8z/M///ZgD/ZjP/Zmb/Zpn/Zsz/Zv//mQD/mTP/mWb/mZn/mcz/mf//zAD/zDP/zGb/zJn/zMz/zP///wD//zP//2b//5n//8z///8AAAA9PT03NzcxMTEcHBwtLS0FBQUiIiIQEBC6urohISFubm4KCgoWFhYqKioXFxcPDw85OTkGBgZFRUU6OjooKCh+fn42NjZOTk5ZWVkbGxsUFBQZGRkrKysgICBxcXE+Pj4pKSkAAAAAAAAAAAAAAAAAAAAAAADm/mQtAAABAHRSTlP///////////////////////////////////////////////////////////////////////////////////////////////////////////////////////////////////////////////////////////////////////////////////////////////////////////////////////////////////////////////////////////////////////////////////////////////8A////////////////////////////////////////////AAAAAAAAZ3rRbgAAAAlwSFlzAAAOxAAADsQBlSsOGwAACBdJREFUeJztndFhhCAMhtmHfdiHfbLPrVOBIKigKAlazf/QXkEDfCJiDlL1E3FL3V2BD0gY80sY80sY80sY80sY80sY80sY80sY80sY80sY80sY80sY80sY80sY80sY80sY80sY80sY80sY80sY80sY80sY80sY80sY80sY80sY80sY8+tGxtaad8lCuaG3MQZjKlX6r4Jak+5ibN9G2AuMLaTexNiW6vIGlcaLexiDuaXYAYLC/XkP41cOFEGwvUNVyiMQNLLb7cZAU5VmKBTFZQ3ftg0ZT4P1dFyvptlYU9sK1zrJ2aCpShNhkoaDTVOK7T2qsF1UN29pPNpo74nXhqZFLc/Vpuo2aba07WUq5BMV1Ghrp7NTTjga7inCB0NseIVx++DVoAZjO4dQTjiOLzfpFBKNVRiTzqR2B9tfpRonTj6hw15KOr/BSzqE8bG1OmPad5PDW4p2mj6OcYO1HcakE2dhfC7nioTxuZwrEsbncq5IGJ/LuSJhfC7nil7FePGViw6/lkUtHC/GbN02ixzU9QodWcPq6EtepJp4GWvnF5mweu9I8JKs/A7B8zKhV1op9MIsig2nLQ7oeEMwc4VstLaAnKpjQJeqc6nQYJqLsTc+9QsFKr62rxhDSFRKz61ZMv7FA6D+VtosM1fIxOJWjOfSQEGhOpcLZWdsMteIWTr/kLFrXGzt4ogIYsq06HAlYGx+yY+Q+zAjY1eafgpj1wHr78mRsc0ZL5zYJjG20cjiiIxx/c2/WZGxu6KlCpmZMcBTGIP2HUGdYFweK/KHT3GscJeDkvFcXHGssG64KA1dlwu9zhhPPNOPa4zdIy2v07KCrmcpHCFJGM/FVRi7B3ahOpcL5WNc0JIxFGZ3iyMWOaY0/YtVcaOWjdehoiNrUDqg3HI/SM4XYrfQcELXWGHavjDhfQfBUavJC0rwDhKK+8H+Jc2tcT3zCkXtGutgjEfYlkULBIxjcQP68RkNYdz7vWFQa1XT5OPY2gsYh1HLNL2WUY0VJk0+jq29gHEYteDgmddorXmQHPHMOyPxu60kjOkkjEsSxt0SxudyrkgYn8u5ImF8LueKhPG5nCt6LWNZ77ZO//a6TdLbBnbXxtIuw214Ha4fQrla9VHrjylb1unXpezIqVVVH8e4dfSE2yJsy7iz19UJ1pIEZSs8gqO95Ksrbwy9InuwH8R1n+XXyNe0/v6oWp89jGAoqmLz75ZieaV7jKTh+S6qKmPXNgq1ED4csklqkhcRv8wo32PEpe0xHijaWfCx0NE+Zo/2RxmHZ15adMBb1kcZj9RTGL81soLTQxjTvs09TA9hTOwneJa2bZP4FcQqvMBLHBZiPSYOy3ufeqWG3RUXiy5MxaNUfJW8Lb7bG4OPVWK/3Ben0C0BJnHHPEW1BdP3xtsk8cY8R7VmSkxTfgljfgljfgljfgljfgljfgljfgljfgljfgljfgljftEwHhsVeqcexPGiaUTB2IU+6veo2G5vp1vF1V8PaAyU3S4CxmTuduj7doQhXjSN+hkPjgpdF8M6Vxp1MyatTo8xjvXaNOpnPHZ3AcupW5G2qpvx4J1IdY3enNUuYcxvTRjzWxPG/NaEMb81YcxvTRjzW7uf8WH06Z2yc2G86M7aRL2LcYJrlIqo207VeKqPSx0XdnVWB/Uyxt6A64gqRUZuOzXGQXXXJloTxlUDvvPOAR7NsQfSKcWadRHE8Y/O6sQa0JjxGsE47ggvNz+P8D1HUW/zpuvffGoxIvq5iiz0zxhjpNdawxJjU45UX1cpLvUOv7g1/dccc5BGAxgjRF2J3pgYp+AHpxmnuNQ7jENJulaRgmkaDWP8q0UhhTzQs9Y74Z43Kv1bkmPGTeFQ/xlj0kivdbXGgG2ryD9jTBrpta7WGLBtFflvjMdYk3dpfmvCmN+aMOa3Joz5rQljfmvCmN+aMOa3Joz5rQljfmvCmN/amxmPjQpd14sZy7rNQ8n6Y35jz1pH39UX37uOnhByZ8BnhnjRNKLY18QQFfqayONF04hofx6FXlWRXLLPlF/CmF/CmF/CmF/CmF/CmF/CmF/vZWz16lXCtvwfbg4NZWy1UnpUQ80aqVV6UNErjWRslFcFMqz7XXdpH2QcFrBXPTfUt/InGVfbiKuzExPY5m6dCNt0WHxMjON/HfsE43lLDTbfrVKFaYwOK1bjOOKGlDBuaOX/sO7UHFAp3Xg7gPmTJSwE5vQvMIaZAdK2ga2e8EBA4dC6rXY60J5SlOflPmSECunut0sC/BwvmA321e8bjH3f8z5iiCwMNjx0M9/vrL8Q1h/h+6pHBpiCld6kh5/gLOJnvEzab2LC9A8w9rc2tjx0U8gajowDlJ+nGHZ54SELxut0HS+Qmj/nXP2vbzAOlA2y8G0GFbfLIWN3b7vduYFxNo7qtK1umx4vgPuNnw0W5PfjzOXdoeHveRpHAYvQ/EAcRk5kjDrDGGqMTbT2oX78wxt9AgBxmgHhHzTOjCE7tL8fJ66fYgx+iDCpyTmODOUJxpiJ4zFO/D7IWPs5hQndV+M4bENawmFwgud+tDM22bwiWDBx+hdmyfARxjiFjT0OWfvpa+ja3mGk0oy2nbE/C+fK3tBifmw+M3cD/wBCzw9gB7N6TjPI36g0xSszLqTDTBU/W4sX02eEOfcXfJs/WD/PfBqss68tccjPglrGHbrLR5+cF+/XXS3Vd924N+gmxm0bw1+i79yx90kY80sY80sY80sY80sY80sY80sY80sY8+sPrcT7D9kBrsQAAAAASUVORK5CYII=;base64,iVBORw0KGgoAAAANSUhEUgAAAUMAAACMCAMAAADRJDvgAAADAFBMVEUAAAAAADMAAGYAAJkAAMwAAP8AMwAAMzMAM2YAM5kAM8wAM/8AZgAAZjMAZmYAZpkAZswAZv8AmQAAmTMAmWYAmZkAmcwAmf8AzAAAzDMAzGYAzJkAzMwAzP8A/wAA/zMA/2YA/5kA/8wA//8zAAAzADMzAGYzAJkzAMwzAP8zMwAzMzMzM2YzM5kzM8wzM/8zZgAzZjMzZmYzZpkzZswzZv8zmQAzmTMzmWYzmZkzmcwzmf8zzAAzzDMzzGYzzJkzzMwzzP8z/wAz/zMz/2Yz/5kz/8wz//9mAABmADNmAGZmAJlmAMxmAP9mMwBmMzNmM2ZmM5lmM8xmM/9mZgBmZjNmZmZmZplmZsxmZv9mmQBmmTNmmWZmmZlmmcxmmf9mzABmzDNmzGZmzJlmzMxmzP9m/wBm/zNm/2Zm/5lm/8xm//+ZAACZADOZAGaZAJmZAMyZAP+ZMwCZMzOZM2aZM5mZM8yZM/+ZZgCZZjOZZmaZZpmZZsyZZv+ZmQCZmTOZmWaZmZmZmcyZmf+ZzACZzDOZzGaZzJmZzMyZzP+Z/wCZ/zOZ/2aZ/5mZ/8yZ///MAADMADPMAGbMAJnMAMzMAP/MMwDMMzPMM2bMM5nMM8zMM//MZgDMZjPMZmbMZpnMZszMZv/MmQDMmTPMmWbMmZnMmczMmf/MzADMzDPMzGbMzJnMzMzMzP/M/wDM/zPM/2bM/5nM/8zM////AAD/ADP/AGb/AJn/AMz/AP//MwD/MzP/M2b/M5n/M8z/M///ZgD/ZjP/Zmb/Zpn/Zsz/Zv//mQD/mTP/mWb/mZn/mcz/mf//zAD/zDP/zGb/zJn/zMz/zP///wD//zP//2b//5n//8z///8AAAAYGBgqKio8PDwODg4vLy9KSkozMzM7OztBQUEyMjIgICAAAAAAAAAAAAAAAAAAAAAAAAAAAAAAAAAAAAAAAAAAAAAAAAAAAAAAAAAAAAAAAAAAAAAAAAAAAAAAAAAAAAAAAAAAAAAAAAAAAAAAAAAAAAAAAABHQyoQAAABAHRSTlP///////////////////////////////////////////////////////////////////////////////////////////////////////////////////////////////////////////////////////////////////////////////////////////////////////////////////////////////////////////////////////////////////////////////////////////////8A//////////////8AAAAAAAAAAAAAAAAAAAAAAAAAAAAAAAAAAAAAl/LJOQAAAAlwSFlzAAAOxAAADsQBlSsOGwAACNdJREFUeJztnQmWrCAMRWs/7sf9sJ/sx+20JmEQGQ0KXcU7//zqQTFeGUKI9GebkurT24Av0GQo12Qo12Qo12Qo12Qo12Qo12Qo12Qo12Qo12Qo12Qo12Qo12Qo12Qo12Qo12Qo12Qo12Qo12Qo12Qo12Qo12Qo12Qo12QoVzOGoIrV6pIRrZ9SrW0u2IzhupYibGR53BIoVCtL2jGEwgPheYaFB7ayZDKUazKU6w2GcP54iyGA/s83pLEl7RkqOAZp5zeg6GYU3cM7DGE7Bg22BOjb3XUA+gKaWiJnyKPtcpil0Fj8Qt/GbveqyHxFMBfxJZMCsuR4ZK4laCT+v3+zsiUrSupsiRnC4jAE5Vh+fBBAQMuVsfxJD3FdyZJ1U/hEieHh8CDW/T+0B01nL0j6UOUMuUFQW94pIUZs0NjzYMM5zAbgRr3CWtzt10otii058AFYSw5jgA3aTm1Z3KTbMsz610An7HXxCYr0cFYomTVtozIsP0EtzYcWXb1rfZt/y5CaHf8E+yfq8e8bYsr7IYb7F3zXzPDoSW8zBFuvxQzXMpnj2zG8EXPg1kcMAZ23u0Y44AoR7AN4jGFRxMKSa8Yw2IsvkXElfPO3ZbsFKjSgJfTD8x0YlbXtBxgGVWCNfHDxCFZb8v8ZFjJIXL+oJn85Qzu43Ln6kiRIvjQkJ5j2Dng2agY9LvqYOOiyrF5kyJOG9Ghxt1vEKpw4cx88cYKHVlLA4eo+6eFZLcf6wO79kwOL0y2e7xx+F+B0cVO6iNcY7tPl43HitXGWxfPAQDH1FM2wTkGGQMHHpTesRevxoZDF5aAF5ayzqI2CFnzsqoB8V4LJZbzHUNlp6qbgOjBbqcr5n6ZOnjnd2+UYrDcHw4WCSBiJ8A9aKC7GFBfqHlZFLZvCFmQ3I6RG/l5bJoYKLVFH6EYFWhOranAxB2MoBhmGPXTqRxbd5q/PyXX68TmuVCq3G/1LDEI657/HUAdv+F7Aiyz7ZZVSPHlEFLBOn1A0prCIYUrv1sPq0koa9I3Os5ZhXsMyLOJzxxX6KYbZweWeS/5jDBFTdKp/05OsmqcUKcxwqYz5nCxQ4chIQOf4QPi+VMyW9LSEiiyOOUCYYfT5hSIWHsNP0aleqzCxr3jV8XQymRc81OY5d7HaVlCzy2qCrQ5NY7CfolYSqYc3swvQuYOrhyxh2DOO3YkhrwNsk+HtLJdLRkesOAhcPaQhGIL9DLgR5MWbkeHC8JrlYtaaK0zWxTmza6WvXnjqVXD6eI4hmNwAilDsYwCiNHGR1QSJlGuBznKhfBuOGtEYp3S+Sz7LxQ48PH9TlJmgdMZlBUO09xTh4K/V+Wk2Zwgc5zAMTzGf4+dukAiDRo7TATrLheoeUL4NFkIZL1hAyYipfZhV6WAFjTnhk92pLOfbbDzUkyVKT4A54YKzVvBxqZa5IheGFHIzDKk1LTpI9KFUmsWpODpQqDjuS+jBMETLy9sy3T7ooBP+/Oq+uUuG9mkqIIS8/KrTldQ58+fqsLZguBI8TuACk7RiVi5XCvnqK5/7Qwjm21ARJt+mnKE5VemuoLgtH8vVx6PVT1PHsblI13SprvUwF/NJjcvJk7mAeoZa2/XqoYlO6NSrtucY5tXat4lcpdQ/ZBya8TYZ2qsUMrQrASY83jUfeyyGYfkxB3clQA/lXRkWzdNjMYfCqM/qB37Cd6c9Jl2qKd2PHpq2bHrG4ujHE+/4FF7av93E2Yksl4ScGKHxO+yTy8Zgg1G4oBrlNA8Yg3Ug2cKdxUBBWsQzGo7hqZo5XZvbhTyY0H1HgzE803E7rPOq9FAUH19f5knDFshuAJ2MY0M6ZzLuIOzHzx9I6L6rx/NtbLINZ7rajBeFk2x8hwUrmT9anKveZQSQ5dw11Du5Ipxvs1NZlctQ+8dYUS9ey5L6dhtncHmeIQYh+B+Fwpz3AXg9agutefoVL+CKjNEtjjGmhFhclyxDcb4RKA7BMNgmr2zCPnH/wWUAhuGxITARiyUE9x5cujOMvboXSmiITc46Dy7tGN6aL0e7s2CiZ/x5de0W270ndSduE60/kWab2vCgH8WO7+ul+rFIq72O1RuvXW0dB5ee740mFtNjNPxTFL3px05np8GlF8N004v+zodrotjAKyQ9KPZhmLnXRIDZuwzvHWKj2D26xfYMaWXcjbjwWrNdkM61uUSiZn4N5KBYH46XqMG+ImSS2VXGzbcBzFCgfAjQa/RLrqok36YvqGbRJFpXDRu9fH8bbdMp34YxUKKM3ZuF8m0yFNJ7pZQsJJWMzw23EGy8z5K3N4uijA1vb5brySeqmaWifEZ20ZrnsAy58er8GF9xhpznhg8gQyBfEf8/w1xHHrpDxa/HHfyzHV62IoYZwuljXIYlijDEvLYdcnAJX0drMXEwWxHtFhOuTTqBU3/7bQydHjFYy867t2QHJUx35kxNeoXZ5JGCjqMPyfDe+ym+wrcGAM7bA7mKaF6E57qnEzgxd09xKvmIDNtkaKT9Gl3/MhWRZ5OwmXRcvaTobDo3IsM2KkuBydy/bsvJoe1rGZZms6Wz0H+bYenAlAbwb/3DFipOCMx0m7/MsODFWlZmYCrwDr6UYUVOZboiit2DOg3EsGpv20f35a3UQAyrsDy9Q3SNxmFYmaU/UEUch2HlOshAFXEYhtUvOoxTEUdhmF0huJ7RO93LqA/DwBJRYB3pdMr194Gf9KmanRgWVDqvnr0896hRJ4YFx0yGaU2GcrVi+Nw6U436MqzYw8Vm3HmnOMX8HkPz54rcPVxoZRp/fWVIrwjRqeZP8/CfCDqO+T2Geuff8x4udtePQD08DrI76erdSswpv8cQ1s3mlOj0CGf3mQBDelGITgG9Ucgv10OAUE5JLC/HnPLOGkmN+jHE1hjeCgYCe7i8vM5Uo//t23iaDD3dYHjdqP0VzfmyXH0YLiVaq0/5/BLD79JkKNdkKNdkKNdkKNdkKNdkKNdkKNdkKNdkKNdkKNdkKNdkKNdkKNdkKNdkKNcfd58wRMx+6IkAAAAASUVORK5CYII=;" parent="1" vertex="1">
          <mxGeometry x="630" y="135" width="129.06" height="130" as="geometry" />
        </mxCell>
        <mxCell id="zuC4qfCXo2OvN4aDPd7j-5" value="" style="shape=image;imageAspect=0;aspect=fixed;verticalLabelPosition=bottom;verticalAlign=top;image=data:image/png,iVBORw0KGgoAAAANSUhEUgAAAIkAAACKCAMAAACpbplVAAADAFBMVEUAAAAAADMAAGYAAJkAAMwAAP8AMwAAMzMAM2YAM5kAM8wAM/8AZgAAZjMAZmYAZpkAZswAZv8AmQAAmTMAmWYAmZkAmcwAmf8AzAAAzDMAzGYAzJkAzMwAzP8A/wAA/zMA/2YA/5kA/8wA//8zAAAzADMzAGYzAJkzAMwzAP8zMwAzMzMzM2YzM5kzM8wzM/8zZgAzZjMzZmYzZpkzZswzZv8zmQAzmTMzmWYzmZkzmcwzmf8zzAAzzDMzzGYzzJkzzMwzzP8z/wAz/zMz/2Yz/5kz/8wz//9mAABmADNmAGZmAJlmAMxmAP9mMwBmMzNmM2ZmM5lmM8xmM/9mZgBmZjNmZmZmZplmZsxmZv9mmQBmmTNmmWZmmZlmmcxmmf9mzABmzDNmzGZmzJlmzMxmzP9m/wBm/zNm/2Zm/5lm/8xm//+ZAACZADOZAGaZAJmZAMyZAP+ZMwCZMzOZM2aZM5mZM8yZM/+ZZgCZZjOZZmaZZpmZZsyZZv+ZmQCZmTOZmWaZmZmZmcyZmf+ZzACZzDOZzGaZzJmZzMyZzP+Z/wCZ/zOZ/2aZ/5mZ/8yZ///MAADMADPMAGbMAJnMAMzMAP/MMwDMMzPMM2bMM5nMM8zMM//MZgDMZjPMZmbMZpnMZszMZv/MmQDMmTPMmWbMmZnMmczMmf/MzADMzDPMzGbMzJnMzMzMzP/M/wDM/zPM/2bM/5nM/8zM////AAD/ADP/AGb/AJn/AMz/AP//MwD/MzP/M2b/M5n/M8z/M///ZgD/ZjP/Zmb/Zpn/Zsz/Zv//mQD/mTP/mWb/mZn/mcz/mf//zAD/zDP/zGb/zJn/zMz/zP///wD//zP//2b//5n//8z///8AAABvb2+ioqJxcXHi4uJqamoYGBgiIiJmZmZSUlJbW1t6enp8fHx1dXVgYGBsbGxAQEA4ODgtLS09PT0NDQ0JCQlUVFReXl5QUFAlJSWpqakTExMoKCg+Pj4GBgYuLi4pKSlGRkYrKytKSkpHR0fv7+7e3t/7/PxVgQisAAAA2XRSTlP///////////////////////////////////////////////////////////////////////////////////////////////////////////////////////////////////////////////////////////////////////////////////////////////////////////////////////////////////////////////////////////////////////////////////////////////8A9EGGvAAAAAlwSFlzAAAOxAAADsQBlSsOGwAABzZJREFUeJztnFmS5CgMQPM+vg/zNYfRnEd/c5f2dcZIYNBmA86unI5IKiKr0mZ5LBaSkOu1/1/S69MAZ/qS2PQlselLYtOXxKYLEjzS+xrCu+oiEgQqevx6CwbAbW0BSeN/x7g0govafJK+wHOUsdpcEpmdvgCsQeTREEVDFJdEtprLrq6XY33otqdIKHNeZVC/4rZIkmrTuTacJcFKslcS/HttdgASNpJSb4ByQXLUkQoJ/LNGkvAg4ZLHJyySMAN/4vKChW46FsYELtfY3QJElBd1bRMke0riqxwPFpdH9UByGEzNOUNfBLaL2m5IUJCopvJCpufgGHpoD1jXD5TDkNdKWNslCSTYuB1wxMFemsfcJBPpfojpxXTU12oLhyRYsWlLiSchpRR1YjS12jClWC75MrZvHbagGxm0S+Gmf4xK8OWOxGSGZLLQYJWtviSgSxZHLX/ZzUsSR7CrNee32AjFPTsG6KNYEi9fe5ggU3gVdZn7PN5koBljl8SfRyBhjfcYDYaVCbdRF0WT+Lx5pHAbxDhhDvrNv+l1V5NEz+zxKL6ihyhiuZAATn8ViR6StvhWFBTUQ3LKSQdRkXSqL9APmjszJEW/ITkMpcb+zgVJGxLgXeUs4ZS9TVBVrrw5VTGIqqF7EqQttZEES/kqlTnIUo82I2jm1wSJTg9I3Ft/IgmvkrZOn5HQVHe1TZBwUXwXSdauoNeGb0lay0DPTXtiVnRq6EqXRVu+O/3Skq21p8ykcM6v5EyKcjn9MtI+am8LUIp+TY8nlDktm19Kr3VpH07CsQP6u3TColkbHRvS5m/FfitWK/BVoERVOyK/jAkUO/7UsQ/woz2ffkgrCJ6Rwpd1IO+2qYSg0x50zL1odTZvRDvBMKiztfw2t98b197R5qe8kDsc0qBWLw1KpN279o5Uxx19B4seL407vmiqk+Uj1T7wsx02Dlaq2Nwhu+JMEA4Unuo+hsZT6PFLWFoBfG4E7n1tW8Trk/SNp5e2neZB2t/4ila8b432Qxjbj4MJ1aoLsrkrVijCGK6xwSSLQyR3PRI9CCsKQde0Lj1sFzsNPxoUW9jvmCfZHJt6HcQp6++yDokn7ddJvPF0bdSehC2kTk2jPZX+grznxs6aKxLnmjsoL5EhqxZNw4NT9chbq1SwBxJ1zDXYbrWCAxWxU6rJo8eGYOJfMwcJrJD7i927KmaHVbP2Pfeq6IU8MzOzwy7brvfFkUsDlbQR42lKoSdnMiHp8pKkTva+oTJiHBJ//Fef475fwC5t0rhp65a3B0lWn2O5g/mEEUnk3VojiV1U6yRrAn/CvfUxEnPjUyR2OX6MxCzZT5HYh+dL8oBkCeQRyXulfbhf/ThJ6E8eIIn3Ynv2eJFY34NTxzHHlvWE1SHhy1k/qWqJrBicA9kwZX0vIatYrrLHJP5eTMpitrrBKZy6EIU5koR6+z9JpEfjpQsjg0gNNC8TmHqUSwxBbcw5aNeXJQkf6mJRG3W5pRT5/O73nZ+wd9zLn7ABicRc8exiY6K92S7ex3S2/bf7CujigB7LKCLjU/+J0+yAtzwnPurtvur7p728e1KQjOs+t3UjeaPszk569Tl1KSzmGwnr8pcUyOIkB9JmFt6Q356RN2jeQiuo+Ydsp3pmIAQyyABD6GrzOxeSXPtj6bSg2Mv1t/QRK0u+OVLLvI+dIOzG2xg4ZJVjOAwFUcsk+w8HTxA8v71+rGscjLhYY2F0YXPBd4TOnmXsNtZFtoOSxpuIQZL4fCc3PxAII49VHpzvxGdeCd1DrwiGskb73wBJfA6YJuNP6ATjwTlguMVsafDkrWcJg1buZWwHq8T4yuYjhgRLjbqdiKS5QItAdxiHUykD575wxtbcawUtQw5X7EnW4wp4b+AAyJVImCrGn5PsJeRfVPhHxp9Q69iirZ6TlGOBKRIOUdqFBfaABEqIMRZNYoyk2El8lkDaRw2TfxC7hXwy0dU2GglTAqVr2EJ3x0+sTmKTGac6Um6XYGc8NZd7z3A8ByrmSHCVgOCqS0Ils/aKrS0iuXAqd4oXqBEqxy5IoR41AAW2VxQ9M6Tbx7GgFGbBJHpwq0lNo1MeEFYNHsSCXsTHdgNz577g+NgUxce6V39XzPBecB/EDHtx1LIPHGLiK1Qm/ORJHLVVoB0bjvV6GVvOoR+mlfXYcp35HfH2vYY9+V7GRsdjQF0PSg6nwwZstU29g8BPSHsv42HQB2mdi+9lKMHz8DU8ZfJNvvumlIPzYz7l426ntlES5725Ve9jagrO+a7WDAl9nC7kCxPqLmXzvARkrryFd74P2L22tvgIJWwkp7d4hqTu6pXkV1p0ySb8q5LUGZ6SJ50TjT9/eV67kYTwrx6FqTGR6se5m60mU9sEyXvf6t2HaovedD778VDCqvYvNIrw7e+a3gEyVN3NG/FvAhmp7Y/4LwE/nL4kNn1JbPqS2PQlsek/QDYmir/YHm8AAAAASUVORK5CYII=;base64,iVBORw0KGgoAAAANSUhEUgAAAWMAAACxCAMAAAAmnSxDAAADAFBMVEUAAAAAADMAAGYAAJkAAMwAAP8AMwAAMzMAM2YAM5kAM8wAM/8AZgAAZjMAZmYAZpkAZswAZv8AmQAAmTMAmWYAmZkAmcwAmf8AzAAAzDMAzGYAzJkAzMwAzP8A/wAA/zMA/2YA/5kA/8wA//8zAAAzADMzAGYzAJkzAMwzAP8zMwAzMzMzM2YzM5kzM8wzM/8zZgAzZjMzZmYzZpkzZswzZv8zmQAzmTMzmWYzmZkzmcwzmf8zzAAzzDMzzGYzzJkzzMwzzP8z/wAz/zMz/2Yz/5kz/8wz//9mAABmADNmAGZmAJlmAMxmAP9mMwBmMzNmM2ZmM5lmM8xmM/9mZgBmZjNmZmZmZplmZsxmZv9mmQBmmTNmmWZmmZlmmcxmmf9mzABmzDNmzGZmzJlmzMxmzP9m/wBm/zNm/2Zm/5lm/8xm//+ZAACZADOZAGaZAJmZAMyZAP+ZMwCZMzOZM2aZM5mZM8yZM/+ZZgCZZjOZZmaZZpmZZsyZZv+ZmQCZmTOZmWaZmZmZmcyZmf+ZzACZzDOZzGaZzJmZzMyZzP+Z/wCZ/zOZ/2aZ/5mZ/8yZ///MAADMADPMAGbMAJnMAMzMAP/MMwDMMzPMM2bMM5nMM8zMM//MZgDMZjPMZmbMZpnMZszMZv/MmQDMmTPMmWbMmZnMmczMmf/MzADMzDPMzGbMzJnMzMzMzP/M/wDM/zPM/2bM/5nM/8zM////AAD/ADP/AGb/AJn/AMz/AP//MwD/MzP/M2b/M5n/M8z/M///ZgD/ZjP/Zmb/Zpn/Zsz/Zv//mQD/mTP/mWb/mZn/mcz/mf//zAD/zDP/zGb/zJn/zMz/zP///wD//zP//2b//5n//8z///8AAAA9PT03NzcxMTEcHBwtLS0FBQUiIiIQEBC6urohISFubm4KCgoWFhYqKioXFxcPDw85OTkGBgZFRUU6OjooKCh+fn42NjZOTk5ZWVkbGxsUFBQZGRkrKysgICBxcXE+Pj4pKSkAAAAAAAAAAAAAAAAAAAAAAADm/mQtAAABAHRSTlP///////////////////////////////////////////////////////////////////////////////////////////////////////////////////////////////////////////////////////////////////////////////////////////////////////////////////////////////////////////////////////////////////////////////////////////////8A////////////////////////////////////////////AAAAAAAAZ3rRbgAAAAlwSFlzAAAOxAAADsQBlSsOGwAACBdJREFUeJztndFhhCAMhtmHfdiHfbLPrVOBIKigKAlazf/QXkEDfCJiDlL1E3FL3V2BD0gY80sY80sY80sY80sY80sY80sY80sY80sY80sY80sY80sY80sY80sY80sY80sY80sY80sY80sY80sY80sY80sY80sY80sY80sY80sY80sY8+tGxtaad8lCuaG3MQZjKlX6r4Jak+5ibN9G2AuMLaTexNiW6vIGlcaLexiDuaXYAYLC/XkP41cOFEGwvUNVyiMQNLLb7cZAU5VmKBTFZQ3ftg0ZT4P1dFyvptlYU9sK1zrJ2aCpShNhkoaDTVOK7T2qsF1UN29pPNpo74nXhqZFLc/Vpuo2aba07WUq5BMV1Ghrp7NTTjga7inCB0NseIVx++DVoAZjO4dQTjiOLzfpFBKNVRiTzqR2B9tfpRonTj6hw15KOr/BSzqE8bG1OmPad5PDW4p2mj6OcYO1HcakE2dhfC7nioTxuZwrEsbncq5IGJ/LuSJhfC7nil7FePGViw6/lkUtHC/GbN02ixzU9QodWcPq6EtepJp4GWvnF5mweu9I8JKs/A7B8zKhV1op9MIsig2nLQ7oeEMwc4VstLaAnKpjQJeqc6nQYJqLsTc+9QsFKr62rxhDSFRKz61ZMv7FA6D+VtosM1fIxOJWjOfSQEGhOpcLZWdsMteIWTr/kLFrXGzt4ogIYsq06HAlYGx+yY+Q+zAjY1eafgpj1wHr78mRsc0ZL5zYJjG20cjiiIxx/c2/WZGxu6KlCpmZMcBTGIP2HUGdYFweK/KHT3GscJeDkvFcXHGssG64KA1dlwu9zhhPPNOPa4zdIy2v07KCrmcpHCFJGM/FVRi7B3ahOpcL5WNc0JIxFGZ3iyMWOaY0/YtVcaOWjdehoiNrUDqg3HI/SM4XYrfQcELXWGHavjDhfQfBUavJC0rwDhKK+8H+Jc2tcT3zCkXtGutgjEfYlkULBIxjcQP68RkNYdz7vWFQa1XT5OPY2gsYh1HLNL2WUY0VJk0+jq29gHEYteDgmddorXmQHPHMOyPxu60kjOkkjEsSxt0SxudyrkgYn8u5ImF8LueKhPG5nCt6LWNZ77ZO//a6TdLbBnbXxtIuw214Ha4fQrla9VHrjylb1unXpezIqVVVH8e4dfSE2yJsy7iz19UJ1pIEZSs8gqO95Ksrbwy9InuwH8R1n+XXyNe0/v6oWp89jGAoqmLz75ZieaV7jKTh+S6qKmPXNgq1ED4csklqkhcRv8wo32PEpe0xHijaWfCx0NE+Zo/2RxmHZ15adMBb1kcZj9RTGL81soLTQxjTvs09TA9hTOwneJa2bZP4FcQqvMBLHBZiPSYOy3ufeqWG3RUXiy5MxaNUfJW8Lb7bG4OPVWK/3Ben0C0BJnHHPEW1BdP3xtsk8cY8R7VmSkxTfgljfgljfgljfgljfgljfgljfgljfgljfgljfgljftEwHhsVeqcexPGiaUTB2IU+6veo2G5vp1vF1V8PaAyU3S4CxmTuduj7doQhXjSN+hkPjgpdF8M6Vxp1MyatTo8xjvXaNOpnPHZ3AcupW5G2qpvx4J1IdY3enNUuYcxvTRjzWxPG/NaEMb81YcxvTRjzW7uf8WH06Z2yc2G86M7aRL2LcYJrlIqo207VeKqPSx0XdnVWB/Uyxt6A64gqRUZuOzXGQXXXJloTxlUDvvPOAR7NsQfSKcWadRHE8Y/O6sQa0JjxGsE47ggvNz+P8D1HUW/zpuvffGoxIvq5iiz0zxhjpNdawxJjU45UX1cpLvUOv7g1/dccc5BGAxgjRF2J3pgYp+AHpxmnuNQ7jENJulaRgmkaDWP8q0UhhTzQs9Y74Z43Kv1bkmPGTeFQ/xlj0kivdbXGgG2ryD9jTBrpta7WGLBtFflvjMdYk3dpfmvCmN+aMOa3Joz5rQljfmvCmN+aMOa3Joz5rQljfmvCmN/amxmPjQpd14sZy7rNQ8n6Y35jz1pH39UX37uOnhByZ8BnhnjRNKLY18QQFfqayONF04hofx6FXlWRXLLPlF/CmF/CmF/CmF/CmF/CmF/CmF/vZWz16lXCtvwfbg4NZWy1UnpUQ80aqVV6UNErjWRslFcFMqz7XXdpH2QcFrBXPTfUt/InGVfbiKuzExPY5m6dCNt0WHxMjON/HfsE43lLDTbfrVKFaYwOK1bjOOKGlDBuaOX/sO7UHFAp3Xg7gPmTJSwE5vQvMIaZAdK2ga2e8EBA4dC6rXY60J5SlOflPmSECunut0sC/BwvmA321e8bjH3f8z5iiCwMNjx0M9/vrL8Q1h/h+6pHBpiCld6kh5/gLOJnvEzab2LC9A8w9rc2tjx0U8gajowDlJ+nGHZ54SELxut0HS+Qmj/nXP2vbzAOlA2y8G0GFbfLIWN3b7vduYFxNo7qtK1umx4vgPuNnw0W5PfjzOXdoeHveRpHAYvQ/EAcRk5kjDrDGGqMTbT2oX78wxt9AgBxmgHhHzTOjCE7tL8fJ66fYgx+iDCpyTmODOUJxpiJ4zFO/D7IWPs5hQndV+M4bENawmFwgud+tDM22bwiWDBx+hdmyfARxjiFjT0OWfvpa+ja3mGk0oy2nbE/C+fK3tBifmw+M3cD/wBCzw9gB7N6TjPI36g0xSszLqTDTBU/W4sX02eEOfcXfJs/WD/PfBqss68tccjPglrGHbrLR5+cF+/XXS3Vd924N+gmxm0bw1+i79yx90kY80sY80sY80sY80sY80sY80sY80sY8+sPrcT7D9kBrsQAAAAASUVORK5CYII=;base64,iVBORw0KGgoAAAANSUhEUgAAAUMAAACMCAMAAADRJDvgAAADAFBMVEUAAAAAADMAAGYAAJkAAMwAAP8AMwAAMzMAM2YAM5kAM8wAM/8AZgAAZjMAZmYAZpkAZswAZv8AmQAAmTMAmWYAmZkAmcwAmf8AzAAAzDMAzGYAzJkAzMwAzP8A/wAA/zMA/2YA/5kA/8wA//8zAAAzADMzAGYzAJkzAMwzAP8zMwAzMzMzM2YzM5kzM8wzM/8zZgAzZjMzZmYzZpkzZswzZv8zmQAzmTMzmWYzmZkzmcwzmf8zzAAzzDMzzGYzzJkzzMwzzP8z/wAz/zMz/2Yz/5kz/8wz//9mAABmADNmAGZmAJlmAMxmAP9mMwBmMzNmM2ZmM5lmM8xmM/9mZgBmZjNmZmZmZplmZsxmZv9mmQBmmTNmmWZmmZlmmcxmmf9mzABmzDNmzGZmzJlmzMxmzP9m/wBm/zNm/2Zm/5lm/8xm//+ZAACZADOZAGaZAJmZAMyZAP+ZMwCZMzOZM2aZM5mZM8yZM/+ZZgCZZjOZZmaZZpmZZsyZZv+ZmQCZmTOZmWaZmZmZmcyZmf+ZzACZzDOZzGaZzJmZzMyZzP+Z/wCZ/zOZ/2aZ/5mZ/8yZ///MAADMADPMAGbMAJnMAMzMAP/MMwDMMzPMM2bMM5nMM8zMM//MZgDMZjPMZmbMZpnMZszMZv/MmQDMmTPMmWbMmZnMmczMmf/MzADMzDPMzGbMzJnMzMzMzP/M/wDM/zPM/2bM/5nM/8zM////AAD/ADP/AGb/AJn/AMz/AP//MwD/MzP/M2b/M5n/M8z/M///ZgD/ZjP/Zmb/Zpn/Zsz/Zv//mQD/mTP/mWb/mZn/mcz/mf//zAD/zDP/zGb/zJn/zMz/zP///wD//zP//2b//5n//8z///8AAAAYGBgqKio8PDwODg4vLy9KSkozMzM7OztBQUEyMjIgICAAAAAAAAAAAAAAAAAAAAAAAAAAAAAAAAAAAAAAAAAAAAAAAAAAAAAAAAAAAAAAAAAAAAAAAAAAAAAAAAAAAAAAAAAAAAAAAAAAAAAAAAAAAAAAAABHQyoQAAABAHRSTlP///////////////////////////////////////////////////////////////////////////////////////////////////////////////////////////////////////////////////////////////////////////////////////////////////////////////////////////////////////////////////////////////////////////////////////////////8A//////////////8AAAAAAAAAAAAAAAAAAAAAAAAAAAAAAAAAAAAAl/LJOQAAAAlwSFlzAAAOxAAADsQBlSsOGwAACNdJREFUeJztnQmWrCAMRWs/7sf9sJ/sx+20JmEQGQ0KXcU7//zqQTFeGUKI9GebkurT24Av0GQo12Qo12Qo12Qo12Qo12Qo12Qo12Qo12Qo12Qo12Qo12Qo12Qo12Qo12Qo12Qo12Qo12Qo12Qo12Qo12Qo12Qo12Qo12QoVzOGoIrV6pIRrZ9SrW0u2IzhupYibGR53BIoVCtL2jGEwgPheYaFB7ayZDKUazKU6w2GcP54iyGA/s83pLEl7RkqOAZp5zeg6GYU3cM7DGE7Bg22BOjb3XUA+gKaWiJnyKPtcpil0Fj8Qt/GbveqyHxFMBfxJZMCsuR4ZK4laCT+v3+zsiUrSupsiRnC4jAE5Vh+fBBAQMuVsfxJD3FdyZJ1U/hEieHh8CDW/T+0B01nL0j6UOUMuUFQW94pIUZs0NjzYMM5zAbgRr3CWtzt10otii058AFYSw5jgA3aTm1Z3KTbMsz610An7HXxCYr0cFYomTVtozIsP0EtzYcWXb1rfZt/y5CaHf8E+yfq8e8bYsr7IYb7F3zXzPDoSW8zBFuvxQzXMpnj2zG8EXPg1kcMAZ23u0Y44AoR7AN4jGFRxMKSa8Yw2IsvkXElfPO3ZbsFKjSgJfTD8x0YlbXtBxgGVWCNfHDxCFZb8v8ZFjJIXL+oJn85Qzu43Ln6kiRIvjQkJ5j2Dng2agY9LvqYOOiyrF5kyJOG9Ghxt1vEKpw4cx88cYKHVlLA4eo+6eFZLcf6wO79kwOL0y2e7xx+F+B0cVO6iNcY7tPl43HitXGWxfPAQDH1FM2wTkGGQMHHpTesRevxoZDF5aAF5ayzqI2CFnzsqoB8V4LJZbzHUNlp6qbgOjBbqcr5n6ZOnjnd2+UYrDcHw4WCSBiJ8A9aKC7GFBfqHlZFLZvCFmQ3I6RG/l5bJoYKLVFH6EYFWhOranAxB2MoBhmGPXTqRxbd5q/PyXX68TmuVCq3G/1LDEI657/HUAdv+F7Aiyz7ZZVSPHlEFLBOn1A0prCIYUrv1sPq0koa9I3Os5ZhXsMyLOJzxxX6KYbZweWeS/5jDBFTdKp/05OsmqcUKcxwqYz5nCxQ4chIQOf4QPi+VMyW9LSEiiyOOUCYYfT5hSIWHsNP0aleqzCxr3jV8XQymRc81OY5d7HaVlCzy2qCrQ5NY7CfolYSqYc3swvQuYOrhyxh2DOO3YkhrwNsk+HtLJdLRkesOAhcPaQhGIL9DLgR5MWbkeHC8JrlYtaaK0zWxTmza6WvXnjqVXD6eI4hmNwAilDsYwCiNHGR1QSJlGuBznKhfBuOGtEYp3S+Sz7LxQ48PH9TlJmgdMZlBUO09xTh4K/V+Wk2Zwgc5zAMTzGf4+dukAiDRo7TATrLheoeUL4NFkIZL1hAyYipfZhV6WAFjTnhk92pLOfbbDzUkyVKT4A54YKzVvBxqZa5IheGFHIzDKk1LTpI9KFUmsWpODpQqDjuS+jBMETLy9sy3T7ooBP+/Oq+uUuG9mkqIIS8/KrTldQ58+fqsLZguBI8TuACk7RiVi5XCvnqK5/7Qwjm21ARJt+mnKE5VemuoLgtH8vVx6PVT1PHsblI13SprvUwF/NJjcvJk7mAeoZa2/XqoYlO6NSrtucY5tXat4lcpdQ/ZBya8TYZ2qsUMrQrASY83jUfeyyGYfkxB3clQA/lXRkWzdNjMYfCqM/qB37Cd6c9Jl2qKd2PHpq2bHrG4ujHE+/4FF7av93E2Yksl4ScGKHxO+yTy8Zgg1G4oBrlNA8Yg3Ug2cKdxUBBWsQzGo7hqZo5XZvbhTyY0H1HgzE803E7rPOq9FAUH19f5knDFshuAJ2MY0M6ZzLuIOzHzx9I6L6rx/NtbLINZ7rajBeFk2x8hwUrmT9anKveZQSQ5dw11Du5Ipxvs1NZlctQ+8dYUS9ey5L6dhtncHmeIQYh+B+Fwpz3AXg9agutefoVL+CKjNEtjjGmhFhclyxDcb4RKA7BMNgmr2zCPnH/wWUAhuGxITARiyUE9x5cujOMvboXSmiITc46Dy7tGN6aL0e7s2CiZ/x5de0W270ndSduE60/kWab2vCgH8WO7+ul+rFIq72O1RuvXW0dB5ee740mFtNjNPxTFL3px05np8GlF8N004v+zodrotjAKyQ9KPZhmLnXRIDZuwzvHWKj2D26xfYMaWXcjbjwWrNdkM61uUSiZn4N5KBYH46XqMG+ImSS2VXGzbcBzFCgfAjQa/RLrqok36YvqGbRJFpXDRu9fH8bbdMp34YxUKKM3ZuF8m0yFNJ7pZQsJJWMzw23EGy8z5K3N4uijA1vb5brySeqmaWifEZ20ZrnsAy58er8GF9xhpznhg8gQyBfEf8/w1xHHrpDxa/HHfyzHV62IoYZwuljXIYlijDEvLYdcnAJX0drMXEwWxHtFhOuTTqBU3/7bQydHjFYy867t2QHJUx35kxNeoXZ5JGCjqMPyfDe+ym+wrcGAM7bA7mKaF6E57qnEzgxd09xKvmIDNtkaKT9Gl3/MhWRZ5OwmXRcvaTobDo3IsM2KkuBydy/bsvJoe1rGZZms6Wz0H+bYenAlAbwb/3DFipOCMx0m7/MsODFWlZmYCrwDr6UYUVOZboiit2DOg3EsGpv20f35a3UQAyrsDy9Q3SNxmFYmaU/UEUch2HlOshAFXEYhtUvOoxTEUdhmF0huJ7RO93LqA/DwBJRYB3pdMr194Gf9KmanRgWVDqvnr0896hRJ4YFx0yGaU2GcrVi+Nw6U436MqzYw8Vm3HmnOMX8HkPz54rcPVxoZRp/fWVIrwjRqeZP8/CfCDqO+T2Geuff8x4udtePQD08DrI76erdSswpv8cQ1s3mlOj0CGf3mQBDelGITgG9Ucgv10OAUE5JLC/HnPLOGkmN+jHE1hjeCgYCe7i8vM5Uo//t23iaDD3dYHjdqP0VzfmyXH0YLiVaq0/5/BLD79JkKNdkKNdkKNdkKNdkKNdkKNdkKNdkKNdkKNdkKNdkKNdkKNdkKNdkKNdkKNcfd58wRMx+6IkAAAAASUVORK5CYII=;" parent="1" vertex="1">
          <mxGeometry x="630" y="265" width="129.06" height="130" as="geometry" />
        </mxCell>
        <mxCell id="zuC4qfCXo2OvN4aDPd7j-8" value="&lt;font style=&quot;font-size: 15px&quot;&gt;&lt;b&gt;Test Generator&lt;/b&gt;&lt;/font&gt;" style="text;html=1;align=center;verticalAlign=middle;resizable=0;points=[];autosize=1;" parent="1" vertex="1">
          <mxGeometry x="585" y="70" width="120" height="20" as="geometry" />
        </mxCell>
        <mxCell id="dZQNJgFwioYakfUk7VY2-10" value="&lt;font style=&quot;font-size: 15px&quot;&gt;(4) Select a usage model&lt;br&gt;&lt;/font&gt;" style="text;html=1;align=center;verticalAlign=middle;resizable=0;points=[];autosize=1;" parent="1" vertex="1">
          <mxGeometry x="746" y="175" width="180" height="20" as="geometry" />
        </mxCell>
        <mxCell id="_SEX4U5vxNxY59ubQdlH-4" value="&lt;font style=&quot;font-size: 15px&quot;&gt;(9) State update usage model(s)&lt;br&gt;&lt;/font&gt;" style="text;html=1;align=center;verticalAlign=middle;resizable=0;points=[];autosize=1;" parent="1" vertex="1">
          <mxGeometry x="746" y="305" width="230" height="20" as="geometry" />
        </mxCell>
        <mxCell id="dZQNJgFwioYakfUk7VY2-19" value="&lt;b&gt;&lt;font style=&quot;font-size: 15px&quot;&gt;Usage Model&lt;/font&gt;s&lt;/b&gt;" style="text;html=1;align=center;verticalAlign=middle;resizable=0;points=[];autosize=1;" parent="1" vertex="1">
          <mxGeometry x="585" y="125" width="110" height="20" as="geometry" />
        </mxCell>
        <mxCell id="ivbXQMKR3xz6gGFe4MmB-5" value="&lt;div style=&quot;font-size: 15px&quot; align=&quot;left&quot;&gt;&lt;font style=&quot;font-size: 15px&quot;&gt;Components = {v1,v2,...}&lt;/font&gt;&lt;/div&gt;&lt;div style=&quot;font-size: 15px&quot; align=&quot;left&quot;&gt;&lt;font style=&quot;font-size: 15px&quot;&gt;Parents= {...}&lt;/font&gt;&lt;/div&gt;&lt;div style=&quot;font-size: 15px&quot; align=&quot;left&quot;&gt;&lt;font style=&quot;font-size: 15px&quot;&gt;Required={next,...}&lt;/font&gt;&lt;/div&gt;&lt;div style=&quot;font-size: 15px&quot; align=&quot;left&quot;&gt;&lt;font style=&quot;font-size: 15px&quot;&gt;Provided={connV,...}&lt;/font&gt;&lt;/div&gt;&lt;div style=&quot;font-size: 15px&quot; align=&quot;left&quot;&gt;&lt;font style=&quot;font-size: 15px&quot;&gt;......&lt;/font&gt;&lt;br&gt;&lt;/div&gt;&lt;div&gt;&lt;br&gt;&lt;/div&gt;" style="text;html=1;align=center;verticalAlign=middle;resizable=0;points=[];autosize=1;" parent="1" vertex="1">
          <mxGeometry x="568" y="-30" width="180" height="90" as="geometry" />
        </mxCell>
        <mxCell id="bGvqWACWf-lIKPqjdWD8-6" value="&lt;b&gt;&lt;font style=&quot;font-size: 15px&quot;&gt;Self-Adaptive System&lt;br&gt;&lt;/font&gt;&lt;/b&gt;" style="shape=cube;whiteSpace=wrap;html=1;boundedLbl=1;backgroundOutline=1;darkOpacity=0.05;darkOpacity2=0.1;" parent="1" vertex="1">
          <mxGeometry x="727.12" y="870" width="160" height="110" as="geometry" />
        </mxCell>
        <mxCell id="bGvqWACWf-lIKPqjdWD8-12" value="" style="endArrow=classic;endFill=1;endSize=6;html=1;strokeWidth=3;entryX=0.968;entryY=0.891;entryDx=0;entryDy=0;entryPerimeter=0;" parent="1" target="bGvqWACWf-lIKPqjdWD8-1" edge="1">
          <mxGeometry width="160" relative="1" as="geometry">
            <mxPoint x="890" y="940" as="sourcePoint" />
            <mxPoint x="491.12" y="1045" as="targetPoint" />
            <Array as="points">
              <mxPoint x="1090" y="940" />
              <mxPoint x="1090" y="1008" />
            </Array>
          </mxGeometry>
        </mxCell>
        <mxCell id="bGvqWACWf-lIKPqjdWD8-15" value="" style="endArrow=classic;html=1;strokeWidth=3;entryX=0.006;entryY=0.282;entryDx=0;entryDy=0;entryPerimeter=0;" parent="1" target="bGvqWACWf-lIKPqjdWD8-6" edge="1">
          <mxGeometry width="50" height="50" relative="1" as="geometry">
            <mxPoint x="504" y="901" as="sourcePoint" />
            <mxPoint x="809.12" y="901" as="targetPoint" />
          </mxGeometry>
        </mxCell>
        <mxCell id="bGvqWACWf-lIKPqjdWD8-16" value="&lt;font style=&quot;font-size: 15px&quot;&gt;(2) Send controllable event&lt;br&gt;&lt;/font&gt;" style="text;html=1;align=center;verticalAlign=middle;resizable=0;points=[];autosize=1;" parent="1" vertex="1">
          <mxGeometry x="507.12" y="870" width="190" height="20" as="geometry" />
        </mxCell>
        <mxCell id="bGvqWACWf-lIKPqjdWD8-25" value="&lt;font style=&quot;font-size: 15px&quot;&gt;&lt;b&gt;Test Generator&lt;/b&gt;&lt;/font&gt;" style="text;html=1;align=center;verticalAlign=middle;resizable=0;points=[];autosize=1;" parent="1" vertex="1">
          <mxGeometry x="265.12" y="750" width="120" height="20" as="geometry" />
        </mxCell>
        <mxCell id="bGvqWACWf-lIKPqjdWD8-28" value="&lt;b&gt;&lt;font style=&quot;font-size: 15px&quot;&gt;Usage Model&lt;/font&gt;s&lt;/b&gt;" style="text;html=1;align=center;verticalAlign=middle;resizable=0;points=[];autosize=1;" parent="1" vertex="1">
          <mxGeometry x="264.12" y="780" width="110" height="20" as="geometry" />
        </mxCell>
        <mxCell id="bGvqWACWf-lIKPqjdWD8-29" value="" style="shape=image;verticalLabelPosition=bottom;labelBackgroundColor=#ffffff;verticalAlign=top;aspect=fixed;imageAspect=0;image=data:image/png,iVBORw0KGgoAAAANSUhEUgAAAa8AAAExCAMAAAD82d0AAAADAFBMVEUAAAAAADMAAGYAAJkAAMwAAP8AMwAAMzMAM2YAM5kAM8wAM/8AZgAAZjMAZmYAZpkAZswAZv8AmQAAmTMAmWYAmZkAmcwAmf8AzAAAzDMAzGYAzJkAzMwAzP8A/wAA/zMA/2YA/5kA/8wA//8zAAAzADMzAGYzAJkzAMwzAP8zMwAzMzMzM2YzM5kzM8wzM/8zZgAzZjMzZmYzZpkzZswzZv8zmQAzmTMzmWYzmZkzmcwzmf8zzAAzzDMzzGYzzJkzzMwzzP8z/wAz/zMz/2Yz/5kz/8wz//9mAABmADNmAGZmAJlmAMxmAP9mMwBmMzNmM2ZmM5lmM8xmM/9mZgBmZjNmZmZmZplmZsxmZv9mmQBmmTNmmWZmmZlmmcxmmf9mzABmzDNmzGZmzJlmzMxmzP9m/wBm/zNm/2Zm/5lm/8xm//+ZAACZADOZAGaZAJmZAMyZAP+ZMwCZMzOZM2aZM5mZM8yZM/+ZZgCZZjOZZmaZZpmZZsyZZv+ZmQCZmTOZmWaZmZmZmcyZmf+ZzACZzDOZzGaZzJmZzMyZzP+Z/wCZ/zOZ/2aZ/5mZ/8yZ///MAADMADPMAGbMAJnMAMzMAP/MMwDMMzPMM2bMM5nMM8zMM//MZgDMZjPMZmbMZpnMZszMZv/MmQDMmTPMmWbMmZnMmczMmf/MzADMzDPMzGbMzJnMzMzMzP/M/wDM/zPM/2bM/5nM/8zM////AAD/ADP/AGb/AJn/AMz/AP//MwD/MzP/M2b/M5n/M8z/M///ZgD/ZjP/Zmb/Zpn/Zsz/Zv//mQD/mTP/mWb/mZn/mcz/mf//zAD/zDP/zGb/zJn/zMz/zP///wD//zP//2b//5n//8z///8AAAAAAAAAAAAAAAAAAAAAAAAAAAAAAAAAAAAAAAAAAAAAAAAAAAAAAAAAAAAAAAAAAAAAAAAAAAAAAAAAAAAAAAAAAAAAAAAAAAAAAAAAAAAAAAAAAAAAAAAAAAAAAAAAAAAAAAAAAAAAAAAAAAAAAAAAAAAAAABlenwdAAABAHRSTlP///////////////////////////////////////////////////////////////////////////////////////////////////////////////////////////////////////////////////////////////////////////////////////////////////////////////////////////////////////////////////////////////////////////////////////////////8AAAAAAAAAAAAAAAAAAAAAAAAAAAAAAAAAAAAAAAAAAAAAAAAAAAAAG8mZagAAAAlwSFlzAAAOxAAADsQBlSsOGwAAIABJREFUeJztXemh66gOPv24H/qhH82f14zbeTGSWGyxQ4xvrJmbk9hs4gMBQoK//aUn0d/dBXipil68nkUvXs+iF69n0YtXOcFBN5fhxStOJ2y0/jzS9xTF0ouXRKDB/AueqeNT3wzYP46X/hAoTQAorRQcck0fTxQogwgcYcxDMD+Uhm37xNr4qYmoESmt7pWIKbyIAyC2+Zn5ptX24et2cZ6hDyIf+uBlqvnzYbBTB1b7AYEp/oHIAeiBqTavTS/S6oivgYJ+/lGKt3KUwOsjq5ERw62m4iJDFrbRpacmADi6Bw+PPE3dVqSmFIJ29KvjhwFAmf6luOa1eWd7j1b4i8IcfCsXgv7cRkm8DCJHeTULAubtEBouzDgC08qpnWjOQ1MFHwRVQ77eAPHS3NY+wk4dmLuKJxyPr+abwhZ5hPaCQl3/wooh2QT8jDu0Nl2hhVLyEMGhpgWbw0t96mEzv0eLByCGME/X6I1gMxzXzNE+UZQRfppbnEZZuHsDkXkIxI1piRxy94PW4YXtDiUsaLVTVCz/p9XpVtEUx+sYeZE72AxeR3mPTyNkPp8bjBcP2DQ0tZGwT++MV3EbMR3TCDWFUp1SPrA38t1UIeC4ZkY6DKoIKw6KM0P6LMTLBPbaOyZw9Hc7E2gBLIoXuNZIeFFb03rzJLlSDZnGiaqKstNBn965torbCFCnJJwUeDKchkQ/kAtKjYafetFKKxm7JJUYC2/GUjPxVCxF6imKlyc9PHloJsPUxBCvkf2LeoOihkh4Hc2F2giPMi0ts1sUQLksBs3tzvRKLDDh9Xm5GW50S1OP4mUqjSbCTjaZN1RmT6oPImojzBjhhTMNI7561kD9K6didZSZhWocgh1enzYH2O5wbso9oIpS/QtI/vIMC79rHEhxnjZ0vkHTaJqEh20EOab5VZMMHj2VTRANiJYFGjSOGQGPKsPxAlrqaGrYEGhp5sznqU0YPGgdAd5kjjO7eQmUJ4MXLyJg95cO+M1wMlYeMqURGdtmSetDfdosXDQuzkkuTlnzjSeDl9WQIGbY4OibHj9+WUoNsaP1UZQe6VKcpoNfe29HZko5DeMGUNUFir7TOIa9S2+Kl80NSa+p7031oHG1it2WVWv27zjcToiEzW7w+uteSuHVnbYDRn5P6sp+2FJJNCa/KF6zqAIIAN0/UA4faX8JL90CANTtCMymH8EL7Ed91KXmo7+A15AaX6SX1eHVsGW4AA2Z8HWNZjDMtKoCL6PxMNQ0EDQRNpD2/IY2rdYyYBvv4MKjYrzCcXfE3CmfpculbbI2Yeip7Sbg19uAWivE61rM6bY2ZwnSIFFmFLGuCVxC91ZbGV5iLnMBE+plkal1RRmE8nYCVoRXVBHQk3NLlsXMrjEHjzHRkWQJXtEM5gEWS7lUNzEbrqIM4ky0Z1yAV6KOZgGWynGFjrOXsD6l2grw+oqy/JRqSk+aizy2LM2UKmh7tRXsf6XSnuOvkc4yyetoScgb6ee0yaoqUZC78EpXwJQpcwaRZNTB5SHDLMrZg25He/VGmddczLw9QDrl7+P1JU0eNQstGsVYU/U4YGnB0yyXevGaUHu9OaILEFo8g1VmoQ+R5j6iNRkS0TvgH8Z+Gsyu/fFIKRsAU0A3lqytb66QrWL7gXhl1mbWhwh8H6LDTO6wt7bIkFcYeg+hPwWCjPbYbNuzkf0Pea18fh+moFlb+v9mVVsOr8bKy8WB01cIHrVkaROw3iRs+neYAmryIWJzMr2zgSB7NZhQYG1WCQsjDsmOEPiNPvkWCULxv5y8axWIX8cLSEhRZ6Cv2hiVWy+BhizdQ+tDZM3J2IeIfO5CTxXrjYDaLvKLIVlnPL8MZsq4mShnWej1rytgz8XrrO9kJ0bP/Q8FE9jRpDNL6ltaWVF29iHSilxRPLzIKJ8FKZdPOX8mLusVr2uJsnhl5iNR6scrnfHZpCt0FQLFTde6phasoJJlEn2INLkL0RRDKes6hE5EYBzFgMY7kpafR9aNlh6xsMzONwrwahvAJvQvs51JDVxv1uYenbbZPNm5CmH73zY2x88voc4Bgt/AZsHWh8gUQNmWgHMNLBK7mAOOX1gijKAxqSNJa5kO7GgEZM4fLeKD8MLZlsZRGedomhwXuYFe8OKJMxQ5Hp6yTCmvak3tSyNIvkV+MRaWh+fGbu3eeY6m8YlibIT+tfNg0IRXPGS1D1ExwMLuqY/fbfON6vXX4eXk5tNoOs5PfLysqyuP9BavcVPS+v33rg17r1z/5dK5BS9hNudNnTROs4LJFHYojf/A9yoHC2oyRzMgDV+ij6e71svJ0WFT17rDdYzBCteWpn+BL/XoqAarWgBeq9LrFCvqb9sCNXmu/DdRpv/M0x8mhhPY/rarvMf5lf/Pc9om9z8bhr6yTaPvSCST+vuQ1ZmvB5ct0F36+dQ26XbUXZ3XWXJ1BazfiQfRB17ow9cPl/NE8dpOd5L8JR2sMf0ie4DYi81v66WUGQ+TOR7TmT+c0GzVGbuUz55fZ9zYn7NLNxqJDMKgX0EN9jbWuBg+g8ng823EDL1cgXE6ZHE1YJVAAOvHmngkmX+2xD48zju6cRleTiprZ1xsvd3H07mFYK4mS9ZcbSgXy5Jj/XJbcRvNcqmSQp8D0846Fg2F9ofAJfBqEnzbhsEUZBPwR5bZ+q9IFkOn+AnSqqrnsNjWnhyOYncUp9C+l49zuBaqULJIlI7Bf+VcD1FcoAgZauZv9+oKAl4z9tvZ5P61x5HJaNPJm4VEgiP/WTTmvsfGDjzvJ51v6nUXFTQCOYTZDDBT6m/gFZ0lxt6QC00SEg4jR080hsyxIHMt7XOJJ+pqU31FK/ZPSb27vkQfsdLpQCRwGpNIz/vaEjrezdKV1ZfrX9GcKbejC+EvqG/fGAfHBz5uqSpXevZNF5ZTAUF8eo3UlWcRXnnlpaeGaZdFFJeWWPX7lnvrhL2LWAqwdcAsTS/SX8EeQsGESPPfzvZ9QKZQ4VSQkD9h/pqL7oX4CLQ/IxZKZo8dmf3tlxVOS/q4lh8ijGglXJar1WDd7u91KOcKVZo9ZaX5Bo74cjpFap9xPuiogS8/JncRHb2ZqJcd3t3jJOLmh9dZWpk85jIMqrbjeFulSjUng1fE7WQWVn+FxR6mPwymdrTDWDwpby7DOaGKTnO/HCQ6pPgm7AaK1LHouK6/7PEa6i+72xvGay1DT2KLSMNSU1cOPRAvzP0D2VY67CON1dSND/kFKh6YJux/ga4QyH1l6ElrLbzmFzuujzJ4FW8x7SM7WI18X2UAO+hWvHDHQqqOyElI45p6TUoLdTC5mUU2GBrzSPQvHUlXW/eNUxnm4hUxvcWw//vfqLw7SFRoKtHQZJY9m1SE8CT/dNg2qsbr7lvvkAShY5wrNilsYx6NeEmVN1seRvE6NpuXwOv66OBEdFmf5L8sqcDd7VKnF8PO4qjCS5ul6gJ4xfgX7wVobdwj8bqnf6mNLCIuB8nznY18FEDkvPmmYLvwOoaX9Px7eMXl4du/yh9/Tx7eNd945PgV1XB+sX/BPfP5OF778Gs020hclBpLQCFsYx45vETZK4vq6fN5EZS56+XzKcnMuGj1JQ32iu+aO6fbWKBuf1hHI/VR0kNZqTJs0JTI89el7GhPUDzHQDTxkpVBE/RR1Qnfoj+c1b3wrBu8ZzKcC9MJIkJTqWg7C+A1suZ6dgX4OAn04Vd0kTwfKUECTQdHOdiZPEc4lBKfj83dO0lHfSnjIEMHeVzkXHmxm9t2Hq/SlG/Z/xICHkpqPp7AHXLCh0xYZOgUFPO/sRQyJ4Khg/RxIa2yHUtv2h11AHxp4y7cZfyFXdbu8wH6izA4Vzo3wh1DgEe38OWKB5mToLR1qUYIFfcvvCRZo6uWWZCbo76Uc59/8RqYK505AHauYG4IxtMHlA3hTlkj1PBEMP94NrDX8Jonm8NKR/AqLfYwe5v2xEeP+825ujPvzNkePjI84OB5lBDgxUpZ6ping3fodCW+vBb8g8LC8syurM7zsUcUoT09cQJtDzfEo1kAj2w5apKQ0WYCofigLzyAAszZXwYdrS1Umuzl6HAwisQitFXHM8b+MJ58QRnGT6sbc8WT+Wg+Zw81pHmgCY4Y4AqKNLhm1wNPnbARqAeRrTVHoKl8dC+3pNhdddV1v8OYIkzMtXofM4yAV+9K2YjrZSzT3MrquT/FvVebMcoditoIN4zqm9CDKcThxblFzo2IeiFmAetr26X3E6XfmpM4amyp8jkmXGVtiIJEanO9KpnqUsgC1imKmu//Ct+plpNT0hnuad6OMy47fUsnUa6uuqjffxlHZvSmGU1xl1NNrttDG8koioLSb+5ffn9lxCucSqBKfezyxKdIfTpQxL4YcJI2WgaPo8hcZIDKrvK+0dMTVwLSEvSXiJKwZhkXJ0DgXPkoqRXp6rs4yPOp6j5f3yn8fEssBH/ayTYANqOJ5grbsnDtWOqg2GOG2tr7soOjTqJh2soSxjs6mOIX4aEr9LTo8NgbyRV73CkTU+43h8RJ34lIAU9mkRCxOIIgWH1W36PhpZt0Hz3Yj8bQqByKLUljP5ajp+BlqGyElT3Vcf0Vi7I0Rj4NH2Bn4rUnz+za7aJYeJ1VqHSX7Ss0vpxT8ULyj13d3d/kCRAZRs9z5f5CzqFH4sXEK5ACMVmpM122uz0arwrK8vkMwCbI7X8Dr0VpgjHrbLza6vVfwWt8KSfjld7gjZ492j3ALUEzbMVvxQuNayMvkiRZbiwH4QPxSm7IIz/iiREt/Ws5wGYUaC5epJK1Vup0CyE98+3/QmqTh4sBNsV1ZjZeaNmHN7fxHcZ0N3UCr39ivjGljHPxwmvAtGZvAbRoBrwzsQOvJ8D1RLyM84BC81lrtg7G44OtZOUpSUYgPgGvOWWcq+9V7l49jffC2ltH9yRedfrD4njdVJH8I/HCuw4B/Aus+c7EnQ+ykGJm9PMtr7oJd4v93zbT6zpyUkHm4oXzQjZP92zYNXivxajpdXbbuz5iB0D3wFjR498LG0/EK0cOwAvdA0mM0JPvsCaBk9OXZu+9s5iYZAp0r743YXMdB6UGLqDb5ch//HBOpqWg+cChk84SwnWit1qkCPq4pQbY23JT7Bx9jMfa/DSJhMPwrDa1pn7+oBjHJR4g7ptx8WIXVuOkp8zqT5l7vFksm6kruTEDeTcTXsZL7ABoYz9Mkygm450dE+I17ZiJdfFqkZSXIHbMoZvUjUMeHpvK56+Qk6t1Y6ZneLsa+1aC53xu1pFbsKTknGoK2UYL4yU20jILYlddh58r9QdeAOLqL/SOxT7k1hgYxLgXscclXsKDl4CbZM0RAvrFy5Ew6SqsB7DhsW9p7Ge2t+xu3UedTm8eXoFjOp0MgWensIINn5JvO4b1ijZvRrQ0XrwYoO/SXZZp0nxyBtDaz3OSVVT/ylY/rRPBBmHJyVCBdWumJClZU7rrqUUzaHG8ds8AvMECHeefQN7Hiq4/YHOt3Yhcts7HpsGf6Nms+I0J6vk2H6KafWJBn+fzv4zXTuqDBqzOD+q9Y4MhSaEzs6Cd1uFYO/MMsifg1Ujnmq12Pg8APi6S2zb5nqtTc5q5nv+n8QrrrcGbuanip6pf/mG8bqK5xuIvXqNprnbzxWswTVZG/+N4fV2VP/d82oXwAvHr7hZDu/1G2ooiKL4N2Oz8VsHLUw/4XzUdDcr7HkAbIZsunb19F7Dpua2Cl0wafBUdKu+ATQmWuWvU0fzGsQheniemOQ8PFQn2DFfc+mAdu6QCWoK+4Pe5Cl7msF0+a5L3dc3DDdxJn3ZDC7fgpYt/xNRnFt3PZ35GC+FlN6I07usm8DIb9OUKpi+NYd/IZhm8cJfpAwnaBAM/CU7SdRuK+KC0gr4C2FcyWQQv2kZ0u1XeCfJ2/NIOL6jqX1+RiAxXfhA7hQDvi/eKvfNDb+9V8CJxqIGPIme87Jnv4B8lTuZON5faJwtX9N42DqjDo7+slAC+1sAQfQVzXY6bCi+CF1lW0K4iWi8hfPgcJ4eaTv1Xern5odVr5Ap1tTo1M2NrCgJsBXTsa8Ou+fALCr0GXrGRKHI6K33Wrb+mikQrxk5mN9eAbLazeyfa4cHpgHMrtB0xsn/TsCk+oRtDr4AXRM8HG3m06szFkXdm3EYmAnS/DgozXN4bsRFYnfLyhaxOT2tNPPZ+2/y1yxJ4pQ66SUSrzWYaXl5TwHq1OGgg62IyUj3MTXeDl/WG86xOvevGCK99Zztwun9iBbweTyf7VHYr9daOZhQOrU6tFaObW7FR6+7j9Qm1v3gNJF/Qgqc4o/kt9Tg8C9VanZIRK6BJKlky8pJmP61d9hevcRSMi9p2Duu4wvMHmvY5q1MIrU6dATKvXQgjvPxjofHrizR+DAtnqZrBQW8J/GGcf2miZ9xd6K5FuhvOXFVFY5e2Eb0b5vy1y4/hNRyw034yVSsE6w7sWfRMK7CPcTsCwwGfOcgxeLOC+iVl8Gt4CWakaEHcNt0/aZbyS0LYNlpsXd6k4q6m37iJ+NBxoIPS+5YIIN9ucM5QqcgtCKm1Jn/7Zbwuh8JXOlR8y2fZpx/GSwSnArFb7BF+Ei/ndCK9LIThnjNbfhSvbsXkXUd0/yRemT5UdKfhPXD9Kl6Z2s68v9GS7ifxKuk/qXc37pP+Il5FJ0LEd3huNVP9QbwK5xOR5zcbFf8kXs2h7kbrF/EqnNkJvXDMjYZ99OJVGm4FtH4Qr+KFE2+D0K9Frnp+8UqGpOMOl+hahl68UiFBHVcGr4PW7+FVsdb9iEBlbuReB60fxEuqfC1vIGplblCfXaQqevEyZvlKQkVv9s7uZejFy5i7iK4uxwCmVe2pU3PpxctQwyH499CL1/FQi0ftvXjdTxG8NmmUevG6nyIYiGdZvnjdTzG8pAHsxet+iswPZdu2F6/bSTp+l/2hLy/mF6eafg4vcSJYHvRu+jW8KvXzy9GL14CQX6QXr+6AX6Wfw6vZHmANevHqC/Zt+j28Fj34t5B+EK8iKBaF6zfxyi+sllx7HfSLeOU7z23uQln6Sbyy/kLLwvWjeKUBWxiuX8Ur5blwv1NDgn4Vr6iB9cqda/9hvOR+tJQtr0Q/jNcVneXR+nG8DEI95xF9n34cr50O42i5gPYWevF6Fr14PYtevJ5FL17PohevZ9GL17PoxetZ9OL1LHrxeha9eD2LVsXrIeqhAnKqrhFKr+/jhbo6e3sBXnGAT/SxxUHKvMEWL+5wIb5UYWzyAWnwnhxM0bd972bqipdTf1J2dcwBfUSjaUz0UIfj0THMDz6hd8Ldej3kKhIojxqzbFsbURU+MYU3RdDl69oxpfH/EqYyAQS8NP23a8y+4gQ6akVU6XI8rZkHupfCywwsYiJrQVOqOoLrxNRx51YFU1TVBIoY6soUfjszFc0BsNpyF4Nc8LI5w86NpZQ1rhMr10RfK+KBWWCJYWE0gCRZw1o399aV2sI7prCTlTIFAdBxprj7oijn356YJJEjeXFqjym8UDVRoAtepuqwcHsdawHQpgHHM86NTiJroIPKw78lRUNxhd1+5xZRFNN1EAQ6OQRlh1wRLtciqBEni3btX8Qa2FlAYStGEchA7+nRtWnA1yFre3Gt77at81BU6uxqxyWujeGWvx5T2D8q8TroVJsVkt4HulxaFebhRI6dRdZUXtP8Bfh/V4jCiIVtIhCbaANUNX51UchMyVyI2SqdZJ9yWG+VdsapfvWQDH3belluR+WSakmKF31Uy7oFr5z1+tS8ZyWfT3cE23G87FqnlhqjhWnk0m/LwA59LRFT0br5La3tGF6ezqs25yB+NOHShOIFqytXEKd2RGmMl0gplkEugQheXroN6qh41t2yCDIZJOM2FiRTGbXlEBaW5YnJeAXFqgEsUyXdrNXNP1OJlUduroyicpwfVOsPr5EqWEvFq1i4cOBz7fTM5psWldeQbUxpx9RlnKpKsWi93DjktAzrV9YSXbZRUtdFzjDllu9ueyjQGQAx5S2Kh+OV+R2jRLzjq+Y9B+CdFLs1ZDW+Tv3Jv/z0kt2tvXBSqrZeC5hy6mpkym4QAe9wEFO6m6kevFx7or2NTDyPNdx0MBygshEYQ96W8FgDl2ENa61Mub0NVqwnmSKgmCm7qbd7vyxT4PCKTQlH4sV9wW0g2L0NaflwkiSnnRR+wKp2/ob1ZFLNKbhG4GUZ4T/8wWWLxfNqhHXC4HAGUrW7bSNvlyVZrnF4uU0qHbLGZUuyRvtCrsdw88X/8bnXTf2VLTSwVsYU7v0K/OSYCp7F9M7yJl6Q0nh5aCtN25HF6wS8O3RhTV5qxxfSqWLKcTvwApmpPehkAlMRD8wOpkbPD8FeLhLMDtzsx5sPBako8VD3LuqaHwZMbfbahlBQCUwFuSiMWD3zTRUs+fNE+fUXbFuk3q8T3Qtrch8LolA0yHUX2MMQwvwmTWVMCZn6D/Rxv1T8ig4ImALvX6JMPlPpCsvoN7CRbeU3iHiKNjBsabla4jyk2fP0riDfKZQsnUtAPG8+Fc/OtT65KrlGciVPvGKuIHtbS1x/yFBHEHc1dymViwgCa9mOZNMR8+QilfYQKb7YjiGkS5FdTEHQlzUdifWgTDrLVFw/D973cwYXCt+6X+cDE6omCKnpYNPFQVFN4BWhC1fxgtUXI1qm/BEFUbzCX16zFFK03fnagGKoF1JYqbE3DYmZ3/Q0NmbgG2P9GUuoiylh4pJN7k/OVvqdnTwc0jeSUs98CnZUFQjPk9HOZbmWvmDv8hDp14ESzvOEajKDVT1T3L9O5Za7ULYMmzQQd7P2If0nCIqSUTAQatL7bNbHONkWM0fqT5LoxfLQTrxEQ7SS8pk1pxCzmzVp2rIXNgIr1CJTupIEpIcleafTVeIMt2r8AhJqUvJlhWiOmU62q9I+kcVOUox4a8xsysUPLV3tezexm5ZVzlKs+QF9SZ2WkaVZj+BKnIxV4hXMKdtZC5cDA6SH/ebd1FWerN9Btbf/VMmUl3W5+XJBylBcJGk+76IOYW1PKXAKCRpYO6XgSjOEKa26L/r1AR+EV3E65zB+UzS3Qwq6wuCf+Mg9bmAtytSQ/pVlas8/BjGTZGGSeI0RHQdvA5tipYi+hh3EFFTpLzPjb8f4FSbTPH6For4grssSKFYgBl3Cjf2rGfHYoFyVuWPKG0obmBLxkqKUzQ+lr/43BwIt9oIcDuI9+JNmsrt/yUuNIqbEmO6tLanVytGvHXhHnfd3rSNZovz1eHWsopIxC+yjjJOrttZEzpSoubbLitYcE0L7KAOXNUoJmWLvUI8pIeVMkUrsD0vSiYeCAC/fPkoyJTp8ca3bq2/61VykRPBCwCV1j/3CRkQBU5rMDNjaQFs8e5kqse8tSKYkJrMG1mToah/lnNbP9lEt+sPiorXHdOKBpaEVGUYPhqJRu4fBUlBSQacptl95/l16dkJe0+9ZFLoRDKxdr3+gQVpdWz3nPEfQSrolW4qYZyoS0TLlTSbje0QFbbB0/0sV7uZeNjEus95YiaxMzwTIpZOg8w7a9lfMVDAx0vW2CKVFyoWP+uudZm7Fq/kAoJId7nJKNczqFI6vWlZtn+KcAUL1cUv2cpES0vFKSf9K72+JvsxUwWfZ78fMW5BUkFvGNKfpjS3loBNTbowa17/ORcpRyn9ZSCWeJL35sOYVYd8FA9kequAslcbpQTwo/VHKxcRBdyRTNQ2w3t88vY6BUGdTnXpT9gNSTU32TwqaW5lqOB8ALuNAdBL3GLxMyrbznGcB00swFS/OQxrRItPTkUPYsKTK85SLcAtTM8+32Se0xVlwJapsKaZa5OF5bSYvBWtLUpj56AQ53XCCnlRCwOVLb+blQdvw8pXRSaVRQj3RRNPE4UmvpD0ApzfCGqYa8NJO18xOxi7r9pIU0bTRy/ogkoJ2Vaba8ALHGiRZq089HXeeOKTWV8tUXYFYkRDErMK/SR5abbRRQSe2XdtZs6qM3R8hJ07mScZTLuGavFLHF83BdNydhG/bPLN/fnjShe6xH34E4INLeRD0B0USSPZUhFbWuigOkdzveZ9I2osF3ra0TvW873dJPEvDz9OLNUv31O5uEQ/sK4xs4MaeAu8cbcfa6MKWUlIna0SAx5S3F+tvWQZMQStT488/tH1BKAiz5p39vfOZIrb1WY407drej5eVlLHOEGHKWgVgU5SYqhSvE86rzOhk/ZmzJwNZIvKOrCdMWB7eB5ctdvztTido7wwsfgUauMxDzWMkPsWYdcX49vmiduYQbaj0J9xwCuIuR1mmqPyCyWLt7GXV+24EWhauHqpl6jl43aHpnU7VPI3CyxtgSM679YwUtDGH7xINRfhph1XRKbytdPVtcDxe9oAiXjwNzOC75CZDQEoPq/y4TRs6CC+3zqU1444fxZflZDMYkkplnjpYKDJTxTfK5DOojzIKLz7l7MyaMCXaGwpa0RLHIWuX79q2vxRT9env19KGqhQWyG5gGYQXLgE1G+V65qxDWCOl1emZZcdt7tDCbkCWO152468WvfXgiORhv15ypmnOb+XV7o6XNAHG4EXjFK0adzffGCTpYSe7YG+Rre2imnVBO6nYZ4wuCT129nE8MA/0Th/ne3sETBG0g/CaOrwg/Hg2IYnb0OfDCixWFQ9r//OINB47TTjJQ0I7tanfCN2Y+YD1lxV7OmDNv0Ix2GgcJIPnEi99djtBY2wcU26n0Q0sN+JVWKlWmeOtgdyR0yRHvIn3KBncRr4WLR/MUzKS9lSHClWjZ/SZur9/2WqOvfb/eM99n4/w7f2aEK/xyO852CVeTjTcjZdlKcLb7VXfQsntsr72dCteYQOUtDwPhAtynb2Lp5vxOv3OvH8EXdeJydeVdC9eyQePRCvDVPfa8E68hKJfNymfRimmBvC0KF5PRUu2WrH7TP3pL7ZwuxdAAAAA2ElEQVT+AnKpfyhakcnEcXz6IJ4Ww+s4a2qgA+33SVwvg3z0awutgBd4xypotalbSjOIvLHKP8xt2NUk9+Hltz//cLDnysI9ztSwDBbBK60QeA5NZ2oFedh6BOWKJC5IBjK1Al6+CPxn8JrE1Ap4ZR8+iGYzdSde8aXlgymptOmnRfUbz6V/Ga+ravT5eGWU2L20lH7+X4DrwtVYnu7dX15tH38MQfRHP91sD5DZX34oWU7GK2vutt9gT8Rnq6EulDEiaqfb8WLe7i7FQ2gBvF6qoBevZ9H/AcnlfmMeF4JmAAAAAElFTkSuQmCC;" parent="1" vertex="1">
          <mxGeometry x="161.12" y="807.5" width="303.82" height="215" as="geometry" />
        </mxCell>
        <mxCell id="bGvqWACWf-lIKPqjdWD8-7" value="" style="endArrow=classic;html=1;strokeWidth=3;exitX=1;exitY=0.5;exitDx=0;exitDy=0;" parent="1" edge="1">
          <mxGeometry width="50" height="50" relative="1" as="geometry">
            <mxPoint x="425.12" y="870" as="sourcePoint" />
            <mxPoint x="507.12" y="870" as="targetPoint" />
          </mxGeometry>
        </mxCell>
        <mxCell id="bGvqWACWf-lIKPqjdWD8-26" value="&lt;font style=&quot;font-size: 15px&quot;&gt;(1) Select a usage model&lt;br&gt;&lt;/font&gt;" style="text;html=1;align=center;verticalAlign=middle;resizable=0;points=[];autosize=1;" parent="1" vertex="1">
          <mxGeometry x="420" y="840" width="180" height="20" as="geometry" />
        </mxCell>
        <mxCell id="bGvqWACWf-lIKPqjdWD8-27" value="&lt;font style=&quot;font-size: 15px&quot;&gt;(4) State update usage model(s)&lt;br&gt;&lt;/font&gt;" style="text;html=1;align=center;verticalAlign=middle;resizable=0;points=[];autosize=1;" parent="1" vertex="1">
          <mxGeometry x="497.12" y="940" width="230" height="20" as="geometry" />
        </mxCell>
        <mxCell id="bGvqWACWf-lIKPqjdWD8-32" value="" style="endArrow=classic;html=1;strokeWidth=3;" parent="1" edge="1">
          <mxGeometry width="50" height="50" relative="1" as="geometry">
            <mxPoint x="500.0000000000002" y="950" as="sourcePoint" />
            <mxPoint x="430.47" y="920" as="targetPoint" />
          </mxGeometry>
        </mxCell>
        <mxCell id="bGvqWACWf-lIKPqjdWD8-35" value="" style="endArrow=classic;html=1;strokeWidth=3;" parent="1" edge="1">
          <mxGeometry width="50" height="50" relative="1" as="geometry">
            <mxPoint x="500" y="950" as="sourcePoint" />
            <mxPoint x="429.35" y="960" as="targetPoint" />
          </mxGeometry>
        </mxCell>
        <mxCell id="bGvqWACWf-lIKPqjdWD8-37" value="&lt;font style=&quot;font-size: 15px&quot;&gt;(3) Execution: observable events&lt;/font&gt;" style="text;html=1;align=center;verticalAlign=middle;resizable=0;points=[];autosize=1;" parent="1" vertex="1">
          <mxGeometry x="887.12" y="905" width="230" height="20" as="geometry" />
        </mxCell>
      </root>
    </mxGraphModel>
  </diagram>
</mxfile>
